<?xml version="1.0" standalone="no"?>
<!DOCTYPE svg PUBLIC "-//W3C//DTD SVG 1.1//EN" "http://www.w3.org/Graphics/SVG/1.1/DTD/svg11.dtd" >
<svg xmlns="http://www.w3.org/2000/svg">
  <metadata>Created by iconfont</metadata>
  <defs>
  <font id="iconfont" horiz-adv-x="1024">
    <font-face
      font-family="iconfont"
      font-weight="400"
      font-stretch="normal"
      units-per-em="1024"
      ascent="896"
      descent="-128"
    />
      <missing-glyph />
      
      <glyph glyph-name="a-222" unicode="&#59011;" d="M104.96 760.832c1.536 5.12 3.072 10.24 4.608 15.872C121.856 832 207.872 869.888 266.24 816.64c32.256-29.184 55.808-64.512 75.776-102.4 2.56-4.096 5.12-8.704 8.192-13.312 31.232 24.064 66.56 30.208 101.888 18.432 19.456-6.144 32.256-2.56 49.664 5.632 44.032 20.48 86.016 9.728 123.392-19.456 10.24-8.192 18.432-11.264 31.744-8.192 48.128 12.288 87.552-5.12 119.808-40.448 40.96-45.056 62.976-99.328 78.336-157.184 19.968-73.216 27.136-147.968 18.944-223.744-2.048-17.92-6.144-35.328-9.216-53.76 2.048-1.024 4.096-2.56 6.656-3.584 43.008-17.92 58.88-54.784 41.472-98.816-14.336-36.352-40.448-63.488-71.168-86.016-74.24-54.784-155.136-93.696-246.272-110.592-31.232-5.632-62.976-6.656-94.208 1.536-33.28 8.192-67.072 39.936-55.808 87.04 2.048 8.704-1.024 11.776-8.704 15.36-108.032 51.712-187.392 131.072-228.352 244.736-23.552 65.024-17.408 127.488 29.696 182.272 5.632 6.656 3.072 10.752 0 16.384C204.8 525.312 171.008 580.096 139.776 635.904c-18.944 33.28-29.696 70.144-34.816 108.032v16.896z m159.744-332.8c-7.68-14.336-15.36-26.112-19.968-38.4-16.384-41.984-9.216-83.456 7.68-123.392 34.304-79.872 92.672-139.264 165.376-185.344 45.568-29.184 93.696-40.96 146.432-18.944 5.632 2.56 16.384 0 20.992-4.608 4.096-3.584 6.144-13.824 4.608-19.456-1.536-5.632-8.192-10.752-14.336-13.312-23.552-11.264-49.152-14.848-75.264-12.8-14.336 1.024-17.408-2.048-17.92-16.384-0.512-15.36 9.728-29.184 30.208-32.256 22.528-3.584 46.08-5.12 68.096-2.048 86.016 13.312 162.816 49.664 232.96 100.352 25.6 18.432 49.152 39.424 61.44 69.632 4.096 9.728 5.632 23.552 2.048 32.768-3.584 8.704-14.848 14.848-24.576 18.944-2.56 1.024-10.752-7.168-14.848-12.288-16.384-23.04-36.864-40.96-62.464-52.736-11.776-5.632-24.064-2.56-28.672 7.168-5.12 10.24-1.536 21.504 10.24 27.648 47.104 24.064 69.632 65.024 76.8 115.2 13.824 98.304 0 193.536-38.4 284.672-11.776 27.648-28.672 53.76-47.104 76.8-19.456 24.576-47.104 37.376-81.92 29.696 4.608-7.168 8.704-12.288 11.776-18.432 9.216-18.944 18.944-37.888 26.624-57.344 4.608-12.288-1.024-22.016-11.776-25.088-11.264-3.072-20.48 1.024-24.576 11.776-11.776 33.28-30.72 62.464-52.224 90.112-14.336 17.92-31.744 29.696-53.76 33.28-19.456 3.584-38.912 3.072-53.248-10.752 15.36-29.184 30.208-56.832 44.544-84.48 2.56-5.12 4.608-10.752 6.656-16.896 4.608-13.824 0.512-24.064-11.264-28.16-9.728-3.584-19.968 3.072-26.112 14.336-15.36 29.696-31.232 58.88-46.592 88.576-17.408 33.792-72.704 34.816-97.792 15.36-7.168-5.12-8.704-9.728-4.096-17.92 18.944-34.816 36.864-69.632 55.296-104.448 4.608-8.704 9.728-16.896 13.312-25.6 4.096-10.24 1.536-19.456-8.192-24.576-9.728-5.12-18.944-2.56-25.6 6.656-2.56 3.584-4.608 7.68-6.656 11.776-35.328 66.56-70.144 133.12-107.008 198.656-13.312 23.552-30.72 44.544-49.152 64.512-20.992 23.04-49.152 27.136-72.704 14.848-23.04-12.288-32.256-33.792-24.576-66.56 5.632-24.576 12.288-49.664 24.576-71.168 34.816-61.44 71.68-121.856 108.544-181.76 30.72-49.664 63.488-97.792 95.232-146.944 3.072-5.12 5.12-13.824 3.072-18.944-2.56-5.632-10.24-12.288-15.872-12.288-6.656 0-15.872 5.12-19.968 10.752-23.552 34.304-46.08 69.632-69.12 104.448-3.072 4.608-5.632 8.704-10.752 15.36zM264.704 428.032c5.12-7.168 7.68-10.752 10.752-14.848 23.04-34.816 45.568-70.144 69.12-104.448 4.096-5.632 13.312-10.752 19.968-10.752 5.632 0 13.312 6.656 15.872 12.288 2.048 5.12 0 13.824-3.072 18.944C345.6 378.368 312.32 426.496 281.6 476.16c-37.376 59.904-74.24 120.32-108.544 181.76-12.288 21.504-18.432 46.592-24.576 71.168-7.68 32.768 1.536 54.784 24.576 66.56 23.552 12.288 51.712 8.192 72.704-14.848 17.92-19.968 35.84-40.96 49.152-64.512 36.864-65.536 71.68-132.608 107.008-198.656 2.048-4.096 4.096-8.192 6.656-11.776 6.656-8.704 15.872-11.264 25.6-6.656 10.24 5.12 12.288 14.336 8.192 24.576-3.584 8.704-8.704 17.408-13.312 25.6C410.624 584.704 392.704 619.52 373.76 654.336c-4.608 8.192-3.072 12.8 4.096 17.92 25.088 18.944 80.384 17.92 97.792-15.36 15.36-29.696 31.744-58.88 46.592-88.576 6.144-11.776 15.872-17.92 26.112-14.336 11.264 4.096 15.872 14.336 11.264 28.16-2.048 5.632-3.584 11.264-6.656 16.896-14.336 27.648-29.184 55.296-44.544 84.48 14.336 14.336 33.792 14.336 53.248 10.752 22.016-4.096 39.424-15.872 53.76-33.28 22.016-27.648 40.96-56.32 52.224-90.112 4.096-10.752 12.8-15.36 24.576-11.776 11.264 3.072 16.896 13.312 11.776 25.088-7.68 19.456-17.408 38.4-26.624 57.344-3.072 6.144-7.168 11.264-11.776 18.432 34.816 7.68 62.464-5.12 81.92-29.696 18.944-23.552 35.84-49.152 47.104-76.8 38.4-91.136 52.224-186.368 38.4-284.672-7.168-50.176-29.184-91.136-76.8-115.2-11.776-6.144-15.36-17.408-10.24-27.648 5.12-9.216 16.896-12.8 28.672-7.168 25.6 11.776 46.08 29.696 62.464 52.736 3.584 5.12 12.288 13.312 14.848 12.288 9.216-4.608 20.992-10.752 24.576-18.944 3.584-9.216 2.048-23.04-2.048-32.768-12.288-29.696-35.84-51.2-61.44-69.632-70.144-50.688-146.944-87.04-232.96-100.352-22.016-3.584-45.568-1.536-68.096 2.048-19.968 3.072-30.72 16.896-30.208 32.256 0.512 14.848 3.584 17.408 17.92 16.384 26.112-2.048 51.2 1.536 75.264 12.8 5.632 2.56 12.8 8.192 14.336 13.312 1.536 6.144-0.512 15.872-4.608 19.456-4.608 4.096-15.36 6.656-20.992 4.608-52.736-22.016-100.864-10.24-146.432 18.944-72.704 46.08-131.072 105.472-165.376 185.344-16.896 39.936-24.064 81.408-7.68 123.392 5.12 11.776 12.8 23.04 20.48 37.376z"  horiz-adv-x="1024" />
      
      <glyph glyph-name="yitongguo" unicode="&#59010;" d="M1002.709333 524.158781L851.709562 762.248533c-13.185219 20.7616-40.738133 26.904381-61.561905 13.833753L36.551924 299.344457c-20.766476-13.185219-26.904381-40.738133-13.861791-61.442438L173.689905-0.21821c13.186438-20.709181 40.738133-26.847086 61.505828-13.777676l753.623772 476.704915c20.823771 13.192533 27.079924 40.711314 13.889828 61.449752z m-30.076343-35.861943L219.009219 11.529752c-6.665752-4.199619-15.390476-2.233295-19.590095 4.404419L48.419352 254.053181c-4.200838 6.666971-2.233295 15.362438 4.432458 19.619352l753.653028 476.737829c6.671848 4.171581 15.42339 2.200381 19.562057-4.437333l151.061943-238.115353c4.052114-6.523124 2.056533-15.275886-4.495848-19.560838zM322.985448 639.381943l12.514742-30.014172 16.214553 28.166096 32.394971 2.614857-21.82339 24.143238 7.432533 31.575771-29.609447-13.309562-27.813791 16.833829 3.523048-32.338895-24.671086-21.033448 31.837867-6.637714z m191.885409 89.352533l-15.567238 28.575695-13.185219-29.752076-32.014629-6.109866 24.171277-21.675886-4.171581-32.219429 28.195352 16.301105 29.404648-13.953219-6.785219 31.837867 22.290285 23.61539-32.337676 3.380419z m292.548267-478.676114l-25.762134 19.799771-0.11459-32.457143-26.904381-18.243047 30.985752-10.220495 9.133105-31.161296 19.209753 26.229029 32.514438-0.910629-19.090286 26.372877 11.014095 30.461561-30.985752-9.870628zM702.266514 120.649143l-12.275809 30.104381-16.481524-28.052724-32.366933-2.349105 21.61859-24.260266-7.695848-31.542858 29.781334 13.009677 27.700419-17.209296-3.262172 32.366934 24.671086 21.000533-31.689143 6.932724z m-192.624152-88.00061l15.424609-28.695162 13.452191 29.666743 32.014628 5.723429-24.028647 21.914819 4.409295 32.190171-28.314819-16.009752-29.257143 14.1568 6.519467-31.775695-22.614553-23.530057 32.394972-3.641296zM221.09501 513.582324l25.614628-20.119162 0.380343 32.485181 27.023848 18.152838-30.813867 10.428952-8.900267 31.3088-19.44259-26.052266-32.514438 1.176381 18.82819-26.494781-11.223771-30.548115 31.047924 9.662172zM106.691048 373.334552c-3.4048 137.519543 63.47581 273.481143 188.071009 352.285258 124.623238 78.805333 276.124038 81.038629 399.190553 19.295085l29.724038 18.800153c-36.419048 20.353219-75.600457 35.247543-116.866438 44.500114-55.133867 12.395276-111.290514 13.948343-166.805943 4.814019-57.480533-9.513448-111.818362-30.251886-161.456762-61.70941-49.609143-31.456305-91.671162-71.637333-124.862172-119.514209-32.132876-46.171429-54.718171-97.604267-67.142704-152.646705-9.252571-41.205029-12.542781-82.972038-9.662172-124.596419l29.810591 18.772114z m809.285485 21.028572c3.552305-137.519543-63.328305-273.481143-187.923504-352.257219-124.5952-78.890667-276.122819-81.066667-399.162515-19.324343l-29.781333-18.828191c36.419048-20.294705 75.628495-35.220724 116.900571-44.470857 55.127771-12.395276 111.285638-14.010514 166.799848-4.814019 57.480533 9.514667 111.819581 30.223848 161.428724 61.681372s91.671162 71.638552 124.890209 119.486171c32.014629 46.228724 54.599924 97.628648 66.9952 152.643048 9.28061 41.237943 12.514743 83.03299 9.632915 124.656152l-29.780115-18.772114zM384.637562 583.810438c34.895238 22.02819 73.281829 33.781029 111.819581 36.128914l45.994667 29.080381c-60.771962 7.166781-121.628038-6.523124-174.143391-39.684876-52.371505-33.128838-90.761752-82.328381-110.2336-140.247771l45.966629 29.075504c18.681905 33.95779 45.73501 63.562362 80.596114 85.647848zM638.147048 183.915276c-34.895238-22.090362-73.252571-33.838324-111.790324-36.186209l-45.967848-29.080381c60.743924-7.166781 121.571962 6.552381 174.115353 39.714133 52.371505 33.099581 90.761752 82.328381 110.204342 140.247771l-45.93859-29.137676c-18.679467-33.80541-45.76061-63.529448-80.622933-85.557638z m-338.951315 63.914667M139.871086 251.523657l136.065219 87.271619 1.083733 14.716343 23.276495-1.428724-4.670171-11.17379c21.238248-33.11421 35.531581-54.729143 42.878781-64.804572l-10.793448-13.933714-7.965257 12.418438-118.358552-75.912533 46.195809-72.02621c5.039543-9.235505 12.981638-9.982781 23.808-2.255238l111.83421 71.728762c11.540724 6.61699 15.262476 14.464 11.204266 23.544686-4.071619 9.070933-10.747124 21.533257-20.036266 37.393066l4.6592 2.987886c18.054095-28.14781 32.096305-39.788495 42.121752-34.912305 0.78019-13.521676-7.269181-24.907581-24.122514-34.166247L267.512686 107.885714c-12.698819-8.912457-23.330133-6.019657-31.913448 8.74301-36.455619 56.838095-57.840152 89.473219-64.119467 97.918781l26.2144 6.295162-3.738819-10.576457 4.247162-6.624305 118.358553 75.913752-35.575467 55.466667-107.17501-68.740876c-8.081067-5.18339-15.006476-10.794667-20.77379-16.828953l-13.165714 2.071162zM254.027581 96.747276c-9.20381 0-17.153219 5.617371-23.6288 16.698514-36.071619 56.238324-57.542705 89.033143-63.811048 97.464077l-5.507657 7.408152 46.099505 11.070171-5.828267-16.483961 106.787353 68.493409-28.993829 45.204724-102.044038-65.449448c-7.632457-4.895695-14.24701-10.247314-19.658362-15.90979l-2.202819-2.305219-32.163352 5.054171 147.004952 94.288457 1.301943 17.683505 37.841676-2.322286-6.742552-16.131657c20.193524-31.44899 33.965105-52.238629 40.94659-61.814247l2.698972-3.701029-18.885486-24.380952-9.335467 14.554209-108.096609-69.332114 43.125028-67.265829c2.3808-4.36419 4.534857-4.36419 5.454019-4.36419 1.665219 0 4.657981 0.720457 9.462248 4.149638l0.251124 0.170667 112.093866 71.886019c12.512305 7.174095 9.918171 12.9792 8.671086 15.770819-3.964343 8.832-10.604495 21.216305-19.730286 36.800609l-2.958628 5.051734 14.717562 9.437866 3.290209-5.130971c19.21219-29.953219 28.980419-33.187352 32.288915-33.187353 0.736305 0 1.383619 0.147505 2.035809 0.465677l8.224914 4.000914 0.526629-9.130667c0.919162-15.947581-8.194438-29.32419-27.088457-39.758019l-129.26781-82.909866c-5.775848-4.03139-11.454171-6.075733-16.878933-6.075734z m-72.412648 113.966324c9.857219-14.457905 29.6704-44.886552 59.114057-90.793448l0.138972-0.226742c4.149638-7.136305 8.577219-10.754438 13.159619-10.754439 2.902552 0 6.262248 1.325105 9.984 3.936305l0.210895 0.14141 3.197562 2.051657c-3.153676-1.375086-6.145219-2.052876-9.030705-2.052876-4.667733 0-11.223771 1.83101-16.046323 10.515504l-55.128991 85.956267 0.992305 2.809905-6.591391-1.583543z m216.271238 15.969524a186.681295 186.681295 0 0 0 2.106515-4.517791c2.641676-5.914819 4.737219-16.392533-6.371962-26.154666l0.49859 0.302323c11.663848 6.408533 18.39421 13.574095 20.384915 21.758781-5.202895 0.570514-10.691048 3.395048-16.618058 8.611353z m-72.903923 51.03299l3.198781-4.987124 2.72579 3.52061c-7.920152 11.246933-21.200457 31.416076-40.411429 61.369295l-1.726171 2.690438 2.596571 6.215924-8.710095 0.533943-0.287695-3.907048 0.457143 0.292572 42.157105-65.72861zM365.815467 405.790476l0.803352 2.851353c11.17379 1.707886 20.643352 2.323505 28.402591 1.857828 7.751924-0.4864 12.882895-2.655086 15.355123-6.509714 2.480762-3.868038 3.262171-7.839695 2.378362-11.911314-0.896-4.08259-1.963886-6.518248-3.202438-7.311848-2.489295-1.596952-5.946514-0.309638-10.370438 3.863162-6.460952 5.973333-17.588419 11.690667-33.366552 17.160533z m118.235428-114.618514c10.452114-2.644114 22.326857-3.023238 35.582781-1.131276 13.263238 1.878552 33.509181 10.976305 60.760991 27.287162 27.237181 16.301105 56.584533 36.874971 88.010362 61.705752l2.123581-3.312152c-10.669105-10.730057-13.381486-19.480381-8.150553-26.258286-29.210819-18.735543-53.332114-33.42019-72.356571-44.07101-19.045181-10.645943-35.458438-17.8688-49.245867-21.655162-13.81059-3.782705-26.238781-4.560457-37.315048-2.317409-11.704076 1.840762-19.022019 1.621333-21.950171-0.64-2.933029-2.283276-5.613714-8.675962-8.073752-19.2-2.450286-10.536229-3.470629-19.552305-3.028115-27.064076l-20.883504 1.798095c4.010667 14.254324 11.835733 29.387581 23.473981 45.433905l-44.602515 69.540571-6.524343-4.183771c-8.082286-5.18339-15.007695-10.794667-20.77379-16.831391l-13.166933 2.071162 36.345904 23.311848 0.2816 11.86499 21.282134-0.37059-3.7376-10.578895 41.947428-65.399467z m105.713372 68.968838c10.287543 5.814857 17.917562 10.325333 22.897371 13.519238 4.965181 3.185371 6.045257 6.982705 3.208533 11.404191l-16.4608 25.664609-43.802819-28.094171 23.894553-37.255315-8.928305-12.736609-27.081143 42.221714-41.006324-26.300952 25.486629-39.737295-9.860876-13.335162c-8.94659 15.292952-21.54301 35.638857-37.829486 61.031619-16.279162 25.378133-28.81219 44.214857-37.569829 56.5248l21.154134 1.883428 40.073752 25.7024c-6.910781 8.018895-19.00739 11.177448-36.302019 9.432991l0.271848 3.677866c11.618743 5.116343 24.177371 8.095695 37.6576 8.964877l15.213714 37.801447-62.440838-40.049371c-8.708876-5.585676-15.937829-11.390781-21.706362-17.427505l-13.166933 2.072381 95.060114 60.969448 3.6096 12.829257 26.862933-4.970057c-10.294857-5.835581-23.30941-23.13021-39.044876-51.9168 1.325105-0.719238 2.708724-2.169905 4.119162-4.369067 1.774933-2.768457 1.809067-6.251276 0.119467-10.439924l41.937676 26.898286 1.212952 12.462324 19.820495-0.14141-2.807466-9.977905 56.284647-87.754362c6.634057-8.99779 4.984686-19.403581-4.963961-31.224685-5.578362 7.319162-16.846019 7.10339-33.788343-0.64l-2.1248 3.309714z m-125.508267 48.028038l15.928076-24.835657 41.006324 26.300952-15.928076 24.835657-41.006324-26.300952z m19.114667-29.802057l15.929295-24.836876 41.006324 26.300952-15.929296 24.836876-41.006323-26.300952z m34.006552 63.873219l15.928076-24.835657 43.802819 28.094171-15.929295 24.835657-43.8016-28.094171z m19.114667-29.802057l15.929295-24.836876L596.224 415.695238l-15.929295 24.836876-43.802819-28.094171zM476.906057 227.836343l-35.243886 3.034209 1.995581 7.0912c3.894857 13.842286 11.284724 28.615924 21.986743 43.958858l-39.088762 60.943847-1.393371-0.893562c-7.633676-4.896914-14.248229-10.248533-19.657143-15.911009l-2.204038-2.306438-32.162133 5.059047 47.121066 30.222629 0.349867 14.683428 35.797333-0.622933-5.563733-15.745219 39.00099-60.807314c4.95299-1.056914 10.300952-1.593295 15.937829-1.593296h0.001219c2.39421 0 4.867657 0.096305 7.403276 0.288915-8.889295 15.057676-21.000533 34.545371-36.037485 57.990095-16.0256 24.984381-28.611048 43.919848-37.406477 56.28099l-6.163504 8.662553 30.251885 2.692876 31.611124 20.273981c-5.941638 2.98179-14.4384 3.943619-25.196495 2.858667l-7.225295-0.728991 0.904533 12.247772-0.298667-0.190172c-8.25539-5.295543-15.183238-10.848305-20.589714-16.508343l-2.204038-2.306438-32.160914 5.061486 106.609371 68.3776 4.489752 15.954895 48.787505-9.027047-14.557866-8.251734c-6.100114-3.457219-16.954514-14.193371-34.421029-45.411962 0.547352-0.689981 1.08739-1.449448 1.618895-2.279619 0.453486-0.707048 0.892343-1.527467 1.265372-2.463695l29.882514 19.165867 1.465295 15.062552 33.378743-0.237714-4.228876-15.030857 54.704762-85.293105c4.766476-6.558476 8.105448-16.635124 0.792381-29.841067a1049.148952 1049.148952 0 0 1 28.164876 21.513753l5.278476 4.170362 8.395581-13.093791-3.448686-3.469409c-8.1152-8.160305-10.68861-14.29699-7.647085-18.236953l4.063085-5.263847-5.597866-3.590096c-29.086476-18.656305-53.536914-33.54819-72.669867-44.259962-19.406019-10.847086-36.432457-18.319848-50.609981-22.213485-14.641981-4.009448-28.084419-4.828648-40.003048-2.441753-4.842057 0.757029-8.881981 1.141029-12.0064 1.141029-4.033829 0-5.21021-0.65219-5.2224-0.658286-0.01341-0.017067-2.62339-2.176-5.786819-15.708647-2.312533-9.94621-3.281676-18.466133-2.87939-25.31962l0.416914-7.030247z m-19.217067 13.891047l6.585296-0.568076c0.247467 6.126933 1.226362 12.94019 2.953752 20.610438-3.98141-6.890057-7.166781-13.585067-9.539048-20.042362z m-27.22499 117.624686l47.3088-73.759695a11.971048 11.971048 0 0 0 1.862705 1.175162l-44.269715 69.022476 1.912686 5.411352-6.766933 0.118248-0.047543-1.967543z m223.548952 0.842362c-24.814933-18.77699-48.454705-34.911086-70.487771-48.096305-16.303543-9.759695-30.069029-16.945981-41.525638-21.663695 12.672 3.829029 27.808914 10.641067 45.049905 20.278857 17.895619 10.019352 40.554057 23.772648 67.399923 40.912457-0.769219 2.481981-1.031314 5.335771-0.436419 8.568686z m-143.105219-13.470476l24.463848-38.142781-7.700724-10.415543c12.17341 3.770514 28.791467 11.940571 49.595733 24.391924 14.309181 8.56381 29.326629 18.4064 44.923124 29.435124l-1.359238 1.783466c-0.95939 1.259276-2.761143 2.933029-7.30819 2.933029-4.801829 0-11.227429-1.824914-19.0976-5.422324l-4.809143-2.197943-8.460191 13.185219 5.612496 3.171962c10.062019 5.686857 17.666438 10.17661 22.606019 13.343695 1.6128 1.034971 1.926095 1.699352 1.954133 1.760305-0.01219 0.002438-0.062171 0.407162-0.585143 1.222705l-13.17059 20.533638-33.543315-21.512533 22.810819-35.565715-16.491276-23.52518-28.695162 44.739047-30.7456-19.718095z m-57.175771 61.185219c8.289524-12.063695 18.908648-28.184381 31.680609-48.096305 13.487543-21.028571 24.644267-38.909562 33.262934-53.308952l1.899276 2.567314-63.57821 99.128076-3.264609-0.290133z m91.599238-24.623543l25.467124-39.703162 1.365333 1.949257-59.811352 93.255924-1.854172-1.18979 34.833067-54.312229z m-53.539352-6.759619l9.347657-14.574933 30.744381 19.720533-9.348876 14.574933-30.743162-19.720533z m124.5184-7.762895c3.377981-0.338895 6.119619-1.283657 8.330971-2.5088 6.191543 9.584152 3.72541 15.255162 1.092267 18.823314l-0.225524 0.326705-57.763352 90.059581 1.386057 4.926171-6.262248 0.045105-0.184076-1.893181 0.331581 0.213333 57.982781-90.400914c4.579962-7.135086 2.775771-14.609067-4.688457-19.591314z m-143.633067 37.566171l9.346438-14.574933 30.744381 19.719314-9.346438 14.574934-30.744381-19.719315z m72.235886 4.269105l9.348876-14.576152 33.540876 21.512533-9.348876 14.576152-33.540876-21.512533z m-19.114667 29.802057l9.347657-14.574933 33.540876 21.512533-9.347657 14.574933-33.540876-21.512533z m-34.157714 14.3872c6.315886-1.710324 11.509029-4.610438 15.534324-8.679619l1.364114 3.380419c0.903314 2.238171 1.038629 3.876571 0.402286 4.870095-1.195886 1.863924-1.901714 2.304-1.90781 2.308877l-0.043886 0.024381-1.031314-0.067048a112.186514 112.186514 0 0 1-14.317714-1.837105z m16.353524 30.279924l-36.088686-23.147276c9.256229 3.388952 19.11101 5.588114 29.4144 6.563352l6.674286 16.583924z m23.562971 25.895009l-3.659581-9.094095c2.479543 3.2 4.878629 6.012343 7.198476 8.439467l-3.538895 0.654628z m-5.060267 0.936229l-0.16579-0.587581 0.748495 0.480305-0.582705 0.107276z m-119.235047-133.889219c-3.837562 0-7.849448 2.024838-12.263619 6.189105-5.755124 5.319924-16.260876 10.660571-31.179581 15.83299l-5.428419 1.880991 3.425523 12.161219 3.881448 0.592457c11.535848 1.762743 21.511314 2.4064 29.687467 1.917562 9.79261-0.6144 16.557105-3.744914 20.1216-9.303772 3.363352-5.243124 4.44099-10.792229 3.203657-16.492495-1.323886-6.030629-3.078095-9.361067-5.867276-11.149409a10.309486 10.309486 0 0 0-5.5808-1.628648z m-21.796572 26.453333c7.659276-3.629105 13.563124-7.389867 17.852953-11.354209 1.225143-1.155657 2.154057-1.85661 2.814781-2.282057 0.196267 0.620495 0.424229 1.454324 0.666819 2.561219 0.540038 2.486857 0.046324 4.815238-1.555505 7.313066-1.315352 2.051657-5.08099 3.370667-10.605714 3.716877-2.766019 0.164571-5.856305 0.181638-9.173334 0.045104zM606.660267 561.4336l0.271847 3.679086c14.368914 2.206476 25.35741 2.826971 32.991086 1.882209 7.621486-0.954514 12.606171-3.599848 14.956495-7.934781 2.333257-4.344686 2.954971-8.035962 1.846857-11.083581-1.122743-3.056152-2.295467-4.977371-3.531581-5.770971-2.490514-1.596952-7.10461 0.118248-13.828876 5.152914-8.774705 6.82179-19.676648 11.513905-32.705828 14.075124z m120.892952-118.7584c10.371657-1.143467 21.305295-0.757029 32.789943 1.169067 11.48099 1.904152 24.951467 7.239924 40.394362 15.9744 15.441676 8.736914 29.060876 16.887467 40.86979 24.461409 8.694248 5.574705 18.305219 12.123429 28.8256 19.655924 10.514286 7.511771 22.885181 16.6144 37.083429 27.290819l2.123581-3.312152c-11.026286-10.174171-14.392076-18.577067-10.143695-25.200153-28.316038-17.376305-51.908267-31.540419-70.757181-42.463085-18.864762-10.929981-34.555124-18.256457-47.054019-22.000153-12.520838-3.740038-24.433371-4.971276-35.787581-3.674209-11.346895 1.284876-18.421029 1.03619-21.217524-0.757029-2.795276-1.793219-5.360152-7.727543-7.672686-17.773714-2.318629-10.068114-3.496229-20.536076-3.501105-31.456305l-20.48 3.221943a11268.298362 11268.298362 0 0 0 21.4784 46.492038L670.96381 502.190324l-7.455696-4.782324c-8.082286-5.18339-15.007695-10.793448-20.775009-16.828952l-13.165715 2.069942 35.414553 22.714515 4.410514 15.681828 20.481219-3.221943-3.738819-10.576457 41.418362-64.571733zM764.757333 610.255238c-15.572114 24.278552-26.337524 40.35901-32.259657 48.246248l27.274972 4.640914-3.207315-11.40419 21.239467-33.11421 20.501943 13.149867 5.212647 18.533181 26.864153-4.970058-49.394591-31.680609 57.346438-89.409829c3.898514-6.07939 5.505219-11.658971 4.833524-16.763123-0.672914-5.104152-3.412114-10.767848-8.20419-16.945981-9.385448 6.430476-24.031086 6.000152-43.899124-1.282438l-2.123581 3.312152c17.838324 9.103848 28.6208 14.851657 32.347429 17.242209 3.727848 2.391771 4.181333 5.7856 1.344609 10.209524l-54.691352 85.269943-64.304762-41.244038c-4.97981-3.195124-10.346057-7.804343-16.114591-13.841067l-13.166933 2.071162L764.757333 610.255238z m-58.615466-64.470552l0.270628 3.680304c18.007771 0.633905 31.324648 0.026819 39.970134-1.821257 8.64061-1.871238 14.050743-4.827429 16.218209-8.879543 2.158933-4.071619 2.780648-7.765333 1.846857-11.082361-0.938667-3.342629-2.028495-5.393067-3.267047-6.186667-2.490514-1.596952-7.278933 0.388876-14.357943 5.981867-10.09981 7.543467-23.664152 13.63139-40.680838 18.307657zM719.598933 377.464686l-35.470628 5.5808 3.359695 7.314285a11505.258057 11505.258057 0 0 0 20.078933 43.477334l-38.441447 59.934476-2.324724-1.490895c-7.636114-4.896914-14.249448-10.249752-19.659581-15.909791l-2.202819-2.305219-32.162133 5.05661 46.966247 30.125104 5.250438 18.664839 33.072762-5.202896-5.189486-14.677333 38.207391-59.569981c8.975848-0.722895 18.435657-0.251124 28.252648 1.39581 10.71299 1.777371 23.630019 6.913219 38.401219 15.268571 12.528152 7.087543 23.959162 13.855695 34.084571 20.177676l-0.301105 0.206019c-7.567848 5.185829-20.736 4.482438-38.356114-1.977295l-4.589714-1.682286-8.394362 13.088915 5.991619 3.057371c21.888 11.170133 29.3888 15.379505 31.826895 16.943543a3.85219 3.85219 0 0 1 0.303543 0.213333c-0.093867 0.29379-0.308419 0.809448-0.799695 1.57501l-51.399924 80.138971-59.17501-37.952609a58.884876 58.884876 0 0 1-4.849371-3.502324l4.117943 0.145066c4.648229 0.163352 9.053867 0.246248 13.092571 0.246248 12.166095 0 21.445486-0.719238 28.366019-2.197943 10.5984-2.295467 17.24099-6.20861 20.319086-11.964952 2.922057-5.510095 3.705905-10.755657 2.338133-15.609905-1.381181-4.921295-3.23779-7.994514-5.842895-9.664609-1.54941-0.993524-3.331657-1.49821-5.296762-1.49821-4.289829 0-9.245257 2.397867-16.064609 7.775086-9.401295 7.003429-22.381714 12.81341-38.582857 17.265371l-4.829867 1.327543 0.954514 13.008457c-2.77699-2.325943-5.692952-5.083429-8.719847-8.252952l-2.204039-2.305219-26.702019 4.200838a14.585905 14.585905 0 0 0-0.570514-1.994362c-1.637181-4.456838-3.530362-7.252114-5.968457-8.816152-1.598171-1.025219-3.435276-1.543314-5.462552-1.543315-4.117943 0-8.983162 2.207695-15.312458 6.946134-8.060343 6.267124-18.2016 10.61059-30.227504 12.974323l-5.300419 1.042286 1.026438 13.905676 4.796952 0.736305c10.285105 1.579886 19.068343 2.3808 26.104686 2.3808 3.142705 0 6.022095-0.159695 8.560152-0.474209 9.657295-1.209295 16.236495-4.937143 19.565714-11.078705 1.80541-3.362133 2.826971-6.549943 3.064686-9.539048l93.029181 59.667505c-13.5936 21.101714-23.242362 35.470629-28.708571 42.749562l-5.998934 7.992076 46.624915 7.933562-5.074896-18.044343 16.471772-25.678019 13.421714 8.608914 6.0928 21.6576 47.488-8.785676-57.235505-36.7104 54.056229-84.278857c4.673829-7.288686 6.607238-14.301867 5.745371-20.849371-0.560762-4.26179-2.244267-8.763733-5.020038-13.450972 7.050971 4.655543 14.65661 9.902324 22.692572 15.656229 10.45821 7.470324 22.893714 16.622933 36.968838 27.205485l5.249219 3.947277 8.428495-13.143772-3.757105-3.466971c-4.768914-4.399543-12.298971-12.515962-9.146514-17.429943l3.356038-5.233372-5.2992-3.252419c-28.401371-17.428724-52.250819-31.741562-70.888838-42.541104-19.153676-11.09821-35.425524-18.690438-48.360838-22.564572-13.279086-3.965562-26.133943-5.271162-38.228114-3.8912-4.494629 0.508343-8.300495 0.766781-11.305448 0.766781-4.000914 0-5.524724-0.457143-5.907505-0.602209-0.425448-0.449829-2.544152-3.137829-5.045638-14.006857-2.216229-9.619505-3.34141-19.743695-3.346286-30.092191l-0.003657-7.125333z m-17.670095 15.119847l5.650286-0.888685c0.26819 5.752686 0.860648 11.428571 1.771276 16.986209-2.432-5.266286-4.90179-10.621562-7.421562-16.097524z m-29.123048 118.02941l46.841905-73.033143a11.693105 11.693105 0 0 0 1.742019 1.372648c0.304762 0.195048 0.624152 0.377905 0.956953 0.54979l-42.950705 66.967162 2.289371 6.475581-7.889676 1.24099-1.006933-3.582781 0.017066 0.009753z m219.062858 1.360457a1532.066133 1532.066133 0 0 0-17.891962-12.996267c-10.485029-7.506895-20.269105-14.178743-29.079162-19.827809-11.828419-7.587352-25.6768-15.875657-41.159924-24.635734a211.833905 211.833905 0 0 0-10.254629-5.449142c9.38301 3.977752 20.156952 9.48419 32.199924 16.462019 17.582324 10.187581 39.848229 23.532495 66.235734 39.693409-0.471771 2.178438-0.488838 4.431238-0.049981 6.753524z m-73.365943-10.821486c5.435733-0.021943 10.321676-0.931352 14.594438-2.711162 2.294248 3.619352 3.646171 6.915657 4.03139 9.836496 0.475429 3.612038-0.843581 7.878705-3.921676 12.676876L749.958095 650.752l1.339734 4.765257-8.167619-1.389714c6.351238-9.145295 15.311238-22.7328 26.759314-40.582095l57.877943-90.238781c5.556419-8.66499 1.999238-15.305143-3.182934-18.629486-1.29219-0.826514-3.310933-1.998019-6.081828-3.524267z m-87.042438 42.149791c7.263086-3.259733 13.616762-6.914438 19.008609-10.942172l0.130438-0.099962c3.787581-2.992762 6.10499-4.266667 7.367924-4.806704 0.177981 0.462019 0.385219 1.073981 0.609524 1.876114 0.490057 1.739581 0.031695 3.950933-1.361676 6.5792-0.566857 1.059352-2.902552 3.781486-12.123429 5.778286-3.584 0.765562-8.146895 1.3056-13.63139 1.615238z m-103.6288 17.923657c5.614933-2.489295 10.719086-5.513752 15.275885-9.057524 3.701029-2.770895 5.885562-3.815619 6.996115-4.209371 0.237714 0.465676 0.543695 1.144686 0.900876 2.116266 0.4608 1.269029-0.068267 3.441371-1.495772 6.098896-1.667657 3.078095-6.546286 4.294705-10.3424 4.771352-3.074438 0.381562-6.893714 0.479086-11.334704 0.280381z m180.049676 82.074819l-1.768838-6.291505 8.009143 5.137067-6.240305 1.154438z"  horiz-adv-x="1024" />
      
      <glyph glyph-name="duigoux" unicode="&#60574;" d="M939.36 677.088a32 32 0 0 0 45.856-44.672l-538.016-552a32 32 0 0 0-43.776-1.92L63.872 369.952a32 32 0 1 0 41.696 48.544l316.768-271.936L939.36 677.12z"  horiz-adv-x="1024" />
      
      <glyph glyph-name="sousuo" unicode="&#60158;" d="M469.333333 128c-166.4 0-298.666667 132.266667-298.666666 298.666667s132.266667 298.666667 298.666666 298.666666 298.666667-132.266667 298.666667-298.666666-132.266667-298.666667-298.666667-298.666667z m0 85.333333c119.466667 0 213.333333 93.866667 213.333334 213.333334s-93.866667 213.333333-213.333334 213.333333-213.333333-93.866667-213.333333-213.333333 93.866667-213.333333 213.333333-213.333334z m251.733334 0l119.466666-119.466666-59.733333-59.733334-119.466667 119.466667 59.733334 59.733333z"  horiz-adv-x="1024" />
      
      <glyph glyph-name="tupian2" unicode="&#59578;" d="M938.666667 342.08V128c0-64.8-52.533333-117.333333-117.333334-117.333333H202.666667c-64.8 0-117.333333 52.533333-117.333334 117.333333V640c0 64.8 52.533333 117.333333 117.333334 117.333333h618.666666c64.8 0 117.333333-52.533333 117.333334-117.333333v-297.92z m-64 74.624V640a53.333333 53.333333 0 0 1-53.333334 53.333333H202.666667a53.333333 53.333333 0 0 1-53.333334-53.333333v-344.48A290.090667 290.090667 0 0 0 192 298.666667a286.88 286.88 0 0 0 183.296-65.845334C427.029333 367.616 556.906667 458.666667 704 458.666667c65.706667 0 126.997333-16.778667 170.666667-41.962667z m0-82.24c-5.333333 8.32-21.130667 21.653333-43.648 32.917333C796.768 384.512 753.045333 394.666667 704 394.666667c-121.770667 0-229.130667-76.266667-270.432-188.693334-2.730667-7.445333-7.402667-20.32-13.994667-38.581333-7.68-21.301333-34.453333-28.106667-51.370666-13.056-16.437333 14.634667-28.554667 25.066667-36.138667 31.146667A222.890667 222.890667 0 0 1 192 234.666667c-14.464 0-28.725333-1.365333-42.666667-4.053334V128a53.333333 53.333333 0 0 1 53.333334-53.333333h618.666666a53.333333 53.333333 0 0 1 53.333334 53.333333V334.474667zM320 416a96 96 0 1 0 0 192 96 96 0 0 0 0-192z m0 64a32 32 0 1 1 0 64 32 32 0 0 1 0-64z"  horiz-adv-x="1024" />
      
      <glyph glyph-name="accessories" unicode="&#59008;" d="M883.2 9.399999999999977H143.6c-29.1 0-52.8 23.1-52.8 51.6V683.6c0 28.5 23.7 51.6 52.8 51.6h218.5c12.1 0 23.8-4 33.2-11.4l116.1-91.6h371.8c29.1 0 52.8-23.1 52.8-51.6v-519.4c0.1-28.7-23.6-51.8-52.8-51.8Zm0 51.6v-25.8V61ZM367.1 667.9H156v-597.4h714.9l0.1 497.7H511.6c-11.6 0-23 3.9-32.2 11.1 0 0.1-112.3 88.6-112.3 88.6Zm6.2-213h421c0.5 0 0.8-0.3 0.8-0.7v-62.5c0-0.4-0.3-0.7-0.8-0.7h-421c-0.5 0-0.8 0.3-0.8 0.7v62.5c0 0.4 0.4 0.7 0.8 0.7Z"  horiz-adv-x="1024" />
      
      <glyph glyph-name="zhuangtai" unicode="&#59005;" d="M954.88 658.432c0 60.416-56.832 109.568-126.464 109.568H195.584c-70.144 0-126.464-49.152-126.464-109.568v-548.352c0-60.416 56.832-109.568 126.464-109.568h632.832c70.144 0 126.464 49.152 126.464 109.568V658.432z m-803.84 28.16c11.776 10.24 28.16 16.384 45.056 15.872h632.832c34.816 0 63.488-14.336 63.488-44.544v-246.784h-50.176l-54.272 47.104c-12.288 10.752-32.256 10.752-44.544 0-3.584-3.072-6.144-6.656-7.68-10.752l-38.912-101.888L604.16 505.856c-7.68 13.312-26.624 18.944-42.496 12.288-7.168-3.072-12.288-8.192-15.36-14.336l-92.16-199.68-101.376 307.2c-4.608 14.336-22.528 23.04-38.912 18.944-8.704-2.048-15.872-7.168-19.456-14.336l-117.76-204.288H133.12V648.192c-1.024 14.336 6.144 28.16 17.92 38.4z m725.504-611.84c-7.68-7.68-31.232-9.728-48.128-9.728H195.584c-16.896 0-32.768 5.632-45.056 15.872s-18.432 24.064-18.432 38.912v236.544h63.488c11.776 0 23.04 5.632 28.16 15.36l90.112 156.16 104.448-316.416c3.584-11.264 15.36-19.456 28.672-19.968h1.536c12.8 0 24.576 6.656 29.184 17.408L578.56 427.008l95.232-164.864c7.68-13.312 26.624-18.944 42.496-12.288 7.68 3.072 13.312 8.704 15.872 15.872l47.104 122.368 27.136-23.552c6.144-5.12 13.824-8.192 22.528-8.192h62.976v-236.544c0-14.336-9.728-40.448-14.336-44.544l-1.024-0.512z"  horiz-adv-x="1024" />
      
      <glyph glyph-name="close1" unicode="&#59003;" d="M511.878-127.989c-62.999 0-124.099 11.7-181.698 35-55.699 22.5-105.799 54.499-148.799 95.599-43.1 41-76.899 88.899-100.599 142.199-24.6 55.299-37 114.099-37 174.698 0 76.799 20.7 152.499 59.899 219.198 37.8 64.099 92.299 119.099 157.498 158.598 14.7 9 33.9 4.3 42.9-10.5 9-14.7 4.3-33.9-10.5-42.9-56.399-34.2-103.499-81.599-136.199-137.099-33.6-56.999-51.2-121.799-51.2-187.398 0-102.499 42-199.098 118.299-271.697 76.699-73.099 178.798-113.299 287.497-113.299s210.798 40.3 287.497 113.299c76.299 72.799 118.299 169.198 118.299 271.797 0 130.299-68.699 250.798-183.798 322.297-14.6 9.1-19.1 28.3-10 43 9.1 14.6 28.3 19.1 43 10 64.099-39.8 117.499-94.599 154.598-158.398 38.4-66.099 58.699-140.999 58.699-217.098 0-60.599-12.5-119.399-37-174.698-23.7-53.299-57.499-101.199-100.599-142.199-43-40.9-93.099-73.099-148.799-95.599-57.799-23.1-118.999-34.8-181.998-34.8zM511.878 389.606c-17.2 0-31.2 13.9-31.2 31.2v443.996c0 17.2 13.9 31.2 31.2 31.2 17.2 0 31.2-13.9 31.2-31.2v-443.896c0.1-17.2-14-31.3-31.2-31.3z"  horiz-adv-x="1024" />
      
      <glyph glyph-name="tongzhi1" unicode="&#59002;" d="M394.752 599.552L200.704 414.72H74.752c-38.4 0-69.12-30.72-69.12-69.12V184.32c0-37.888 31.232-69.12 69.12-69.12h126.464l193.536-184.832c9.216-8.704 24.576-2.048 24.576 10.752V588.8c0 13.312-15.36 19.968-24.576 10.752zM648.704-117.76v70.144c195.584 46.08 341.504 221.696 341.504 431.104 0 209.92-145.92 385.024-341.504 431.104V885.76c233.472-47.616 409.6-253.952 409.6-501.76s-176.128-454.144-409.6-501.76zM68.096 179.2C30.72 179.2 0 209.92 0 247.296V520.704C0 558.08 30.72 588.8 68.096 588.8h170.496l307.2 307.2v-1024l-307.2 307.2H68.096z m409.6-136.704V725.504l-204.8-204.8h-204.8v-272.896h204.8l204.8-205.312z m341.504 358.4c0-117.76-70.144-218.624-170.496-264.192v77.824c61.44 39.424 102.4 108.032 102.4 186.368 0 78.336-40.96 146.944-102.4 186.368V665.088C749.056 619.52 819.2 518.656 819.2 400.896z"  horiz-adv-x="1058" />
      
      <glyph glyph-name="tongzhi" unicode="&#58995;" d="M394.752 599.552L200.704 414.72H74.752c-38.4 0-69.12-30.72-69.12-69.12V184.32c0-37.888 31.232-69.12 69.12-69.12h126.464l193.536-184.832c9.216-8.704 24.576-2.048 24.576 10.752V588.8c0 13.312-15.36 19.968-24.576 10.752zM648.704-117.76v70.144c195.584 46.08 341.504 221.696 341.504 431.104 0 209.92-145.92 385.024-341.504 431.104V885.76c233.472-47.616 409.6-253.952 409.6-501.76s-176.128-454.144-409.6-501.76zM68.096 179.2C30.72 179.2 0 209.92 0 247.296V520.704C0 558.08 30.72 588.8 68.096 588.8h170.496l307.2 307.2v-1024l-307.2 307.2H68.096z m409.6-136.704V725.504l-204.8-204.8h-204.8v-272.896h204.8l204.8-205.312z m341.504 358.4c0-117.76-70.144-218.624-170.496-264.192v77.824c61.44 39.424 102.4 108.032 102.4 186.368 0 78.336-40.96 146.944-102.4 186.368V665.088C749.056 619.52 819.2 518.656 819.2 400.896z"  horiz-adv-x="1058" />
      
      <glyph glyph-name="shijian" unicode="&#58986;" d="M827.871087 699.871087C743.498468 784.243707 631.321596 830.709995 512 830.709995c-119.319549 0-231.499491-46.465265-315.871087-130.837884S65.290005 503.319549 65.290005 384s46.465265-231.499491 130.837884-315.871087 196.551538-130.837884 315.871087-130.837884c119.321596 0 231.499491 46.465265 315.871087 130.837884S958.708971 264.680451 958.708971 384 912.243707 615.499491 827.871087 699.871087zM531.556405-21.246651l0 74.145697c0 11.31572-9.174963 20.491707-20.491707 20.491707-11.316743 0-20.491707-9.174963-20.491707-20.491707l0-74.059739C283.276738-10.322857 116.693746 156.835234 106.755396 364.365824l72.351841 0c11.31572 0 20.491707 9.174963 20.491707 20.491707 0 11.31572-9.174963 20.491707-20.491707 20.491707l-72.273047 0c10.769274 206.737528 177.01253 373.005342 383.740848 383.813502l0-72.346725c0-11.316743 9.174963-20.491707 20.491707-20.491707 11.31572 0 20.491707 9.17394 20.491707 20.491707L531.558451 789.247674c207.593012-9.901511 374.807385-176.539762 385.609405-383.89946l-74.142627 0c-11.316743 0-20.491707-9.174963-20.491707-20.491707 0-11.316743 9.174963-20.491707 20.491707-20.491707l74.220399 0C907.275555 156.21204 739.720422-11.317511 531.556405-21.246651zM532.098757 392.881274 532.098757 637.759471c0 11.316743-9.174963 20.491707-20.491707 20.491707-11.31572 0-20.491707-9.17394-20.491707-20.491707l0-254.66612c0-7.858992 4.429893-14.677281 10.924817-18.114566L693.447539 173.57243c4.002151-4.000104 9.245572-6.001691 14.490016-6.001691s10.487865 2.001587 14.490016 6.001691c8.002254 8.002254 8.002254 20.977777 0 28.980032L532.098757 392.881274z"  horiz-adv-x="1024" />
      
      <glyph glyph-name="yonghuming" unicode="&#59144;" d="M357.353238 616.649504a278.594155 278.594155 0 0 1 93.216025-208.303966 216.636124 216.636124 0 0 1 62.144016-9.063702c119.836775 0 217.33047 97.493695 217.330471 217.330471S632.550054 834.004772 512.713279 834.004772a216.636124 216.636124 0 0 1-62.181213-9.051303 278.594155 278.594155 0 0 1-93.178828-208.303965zM511.969336 834.004772c119.836775 0 217.33047-97.493695 217.330471-217.33047s-97.493695-217.318071-217.330471-217.318072-217.33047 97.481296-217.33047 217.293274 97.493695 217.355269 217.33047 217.355268m0 61.995228C357.712811 895.975202 232.668436 770.930827 232.668436 616.649504S357.712811 337.373402 511.969336 337.373402s279.3009 125.044374 279.300901 279.276102S666.275458 895.975202 511.969336 895.975202zM918.075275 25.215031a424.208546 424.208546 0 0 1-16.961894 46.397228q-5.405984 12.399046-11.580708 24.512913a426.675956 426.675956 0 0 1-125.453543 148.007407 420.935198 420.935198 0 0 1-252.618154 83.321586 430.246881 430.246881 0 0 1-48.356278-2.715391c-166.14721-67.921972-283.181801-231.167805-283.181802-421.741135h756.007005a425.113676 425.113676 0 0 1-17.854626 122.217392zM238.694372 236.358377a30.997614 30.997614 0 0 0-18.598568 55.795705 482.335271 482.335271 0 0 0 35.275285 24.16574 31.001334 31.001334 0 1 0 32.73348-52.658746c-10.588785-6.583893-20.954387-13.63895-30.799229-21.078378a30.836426 30.836426 0 0 0-18.610968-6.224321zM56.527595-127.999975a30.997614 30.997614 0 0 0-30.997614 30.997614A486.042586 486.042586 0 0 0 146.011507 223.450971a30.997614 30.997614 0 1 0 46.620411-40.854855A424.047358 424.047358 0 0 1 87.537608-97.01476a30.997614 30.997614 0 0 0-31.010013-30.985215zM967.411078-127.999975a30.997614 30.997614 0 0 0-30.997614 30.997614 422.113107 422.113107 0 0 1-34.804121 168.627019q-5.405984 12.399046-11.580709 24.512913a426.688355 426.688355 0 0 1-125.453543 147.995008 425.287263 425.287263 0 0 1-407.035867 54.357416 30.997614 30.997614 0 1 0-22.553864 57.717557 487.146101 487.146101 0 0 0 466.514089-62.305204 487.877644 487.877644 0 0 0 143.754534-169.494953q7.067456-13.800138 13.279378-28.096237a484.319118 484.319118 0 0 0 39.912528-193.276322 30.997614 30.997614 0 0 0-31.034811-31.034811z"  horiz-adv-x="1024" />
      
      <glyph glyph-name="shuaxin" unicode="&#58987;" d="M512 52.48a322.986667 322.986667 0 0 0-269.653333 146.346667h-85.333334A395.946667 395.946667 0 0 1 512-21.333333a400.213333 400.213333 0 0 1 395.52 368.64H981.333333l-108.373333 147.2-108.373333-147.2h70.4A327.253333 327.253333 0 0 0 512 52.48zM512 789.333333a399.36 399.36 0 0 1-390.4-331.52H42.666667l108.373333-147.626666 108.373333 147.626666H194.986667a326.826667 326.826667 0 0 0 317.013333 256 322.133333 322.133333 0 0 0 244.906667-113.493333l14.08 3.413333h73.386666A393.813333 393.813333 0 0 1 512 789.333333z"  horiz-adv-x="1024" />
      
      <glyph glyph-name="tuichu-" unicode="&#58988;" d="M561.295186-73.00537099999997H81.142076V841.105361h480.05312c15.198516 0 27.497315 12.298799 27.497314 27.497315S576.493702 896 561.295186 896H53.744751C38.546236 896 26.247437 883.701201 26.247437 868.502685v-969.00537c0-15.198516 12.298799-27.497315 27.497314-27.497315h507.550435c15.198516 0 27.497315 12.298799 27.497315 27.497315s-12.298799 27.497315-27.497315 27.497314zM989.653354 403.448101L739.077824 654.123621c-10.698955 10.698955-28.097256 10.698955-38.796211 0-10.698955-10.698955-10.698955-28.097256 0-38.796212L903.961722 411.54731H387.812128c-15.198516 0-27.497315-12.298799-27.497315-27.497315s12.298799-27.497315 27.497315-27.497315H903.961722L700.181623 152.872571c-10.698955-10.698955-10.698955-28.097256 0-38.796211 5.399473-5.399473 12.398789-7.999219 19.398106-7.999219s14.098623 2.699736 19.398105 7.999219l250.67552 250.67552c10.798945 10.598965 10.798945 27.997266 0 38.696221z"  horiz-adv-x="1024" />
      
      <glyph glyph-name="xiangshang" unicode="&#58989;" d="M1659.19911261 245.511617a69.211299 69.211299 0 0 0-20.050514-48.783294 67.904604 67.904604 0 0 0-96.739016 0L1014.76598561 729.264768 479.48547961 188.94622600000002a67.933641 67.933641 0 0 0-96.753534 0 69.458119 69.458119 0 0 0 0 97.66822l583.657273 589.145394a67.933641 67.933641 0 0 0 96.753534 0l576.005846-581.406853A69.240337 69.240337 0 0 0 1659.19911261 245.511617z m0 0"  horiz-adv-x="1961" />
      
      <glyph glyph-name="trues" unicode="&#58990;" d="M512 896a512 512 0 1 1 512-512 512 512 0 0 1-512 512z m0-960a448 448 0 1 0 448 448 448 448 0 0 0-448-448zM718.08 566.4l-293.76-294.4-120.96 120.96a32 32 0 0 1-47.36-45.44l143.36-143.36a32 32 0 0 1 45.44 0l316.8 316.8a32 32 0 0 1-45.44 45.44z"  horiz-adv-x="1026" />
      
      <glyph glyph-name="renwuzhongxin" unicode="&#60157;" d="M682.666667 213.333333v42.666667h85.333333v-170.666667h-85.333333v42.666667H170.666667v85.333333h512z m128 0h85.333333v-85.333333h-85.333333v85.333333z m-341.333334 213.333334v42.666666h85.333334v-170.666666h-85.333334v42.666666H170.666667v85.333334h298.666666z m128 0h298.666667v-85.333334h-298.666667v85.333334zM256 640V682.666667h85.333333v-170.666667H256V554.666667H170.666667V640h85.333333z m128 0h512v-85.333333H384V640z"  horiz-adv-x="1024" />
      
      <glyph glyph-name="xinxikongxin" unicode="&#60699;" d="M560 96l-10.464 416h-75.072L464 96h96z m-14.144 493.984c9.44 9.312 14.144 20.672 14.144 34.016 0 13.6-4.704 24.992-14.144 34.208A46.784 46.784 0 0 1 512 672c-13.12 0-24.448-4.608-33.856-13.792A45.856 45.856 0 0 1 464 624c0-13.344 4.704-24.704 14.144-34.016 9.408-9.312 20.704-13.984 33.856-13.984 13.12 0 24.448 4.672 33.856 13.984zM512 864C246.912 864 32 649.088 32 384c0-265.088 214.912-480 480-480 265.088 0 480 214.912 480 480 0 265.088-214.912 480-480 480z m0-64c229.76 0 416-186.24 416-416s-186.24-416-416-416S96 154.24 96 384 282.24 800 512 800z"  horiz-adv-x="1024" />
      
      <glyph glyph-name="tubiao_fangan" unicode="&#58991;" d="M791.429612 538.269916H368.042113c-11.00501 0-19.927587 8.922577-19.927588 19.927587s8.922577 19.927587 19.927588 19.927587H791.429612c11.00501 0 19.927587-8.922577 19.927587-19.927587s-8.922577-19.927587-19.927587-19.927587zM736.204289 354.18982400000004h-368.162176c-11.006006 0-19.927587 8.921581-19.927588 19.927587s8.921581 19.927587 19.927588 19.927588h368.162176c11.006006 0 19.927587-8.921581 19.927587-19.927588s-8.921581-19.927587-19.927587-19.927587zM625.75464 170.10674300000005H368.042113c-11.00501 0-19.927587 8.921581-19.927588 19.927587s8.922577 19.927587 19.927588 19.927588h257.712527c11.006006 0 19.927587-8.921581 19.927587-19.927588s-8.921581-19.927587-19.927587-19.927587zM602.955487-105.22675300000003c-3.330896 0-5.483076 0.047826-6.320034 0.070743H232.745751c-16.024769 0-29.062393 13.036628-29.062393 29.062393V752.407784c0 16.024769 13.037624 29.062393 29.062393 29.062393h693.031669c16.024769 0 29.062393-13.036628 29.062394-29.062393v-605.959073l-0.03587-0.597827c-3.357798-55.827136-22.269079-103.754976-56.206757-142.449369-27.449255-31.296276-64.691923-56.453859-110.692765-74.775283-78.871398-31.411856-161.502135-33.852985-184.948935-33.852985z m-359.416955 39.925917H597.255201l0.330798-0.01096c0.003986 0 1.912052-0.058786 5.370484-0.058786 21.653316 0 97.921175 2.237868 170.20252 31.024264 88.777402 35.357518 136.49102 96.58503 141.827629 182.003637V741.615003H243.538532v-806.915839zM219.509848-3.75946399999998H109.582301c-16.024769 0-29.062393 13.037624-29.062393 29.062393V853.80433c0 16.024769 13.036628 29.062393 29.062393 29.062394h693.031669c16.024769 0 29.062393-13.037624 29.062394-29.062394v-80.72566c0-11.006006-8.921581-19.927587-19.927588-19.927587s-19.927587 8.921581-19.927587 19.927587V843.0115490000001H120.375082V36.094713999999954h99.134766c11.006006 0 19.927587-8.921581 19.927587-19.927587 0-11.00501-8.922577-19.926591-19.927587-19.926591z"  horiz-adv-x="1024" />
      
      <glyph glyph-name="zhuanfa" unicode="&#59575;" d="M778.610229 511.277601l-108.811287 108.811288a22.574956 22.574956 0 0 1-31.920988-31.920988l70.298413-70.298412h-73.639506c-4.063492 0.22575-76.213051 0.0903-135.223986-58.423986-47.452557-47.046208-71.47231-117.028571-71.472311-208.005644a22.574956 22.574956 0 0 1 45.149912 0c0 218.661023 154.683598 221.279718 161.275485 221.279718h73.910406l-70.117813-70.072663a22.574956 22.574956 0 0 1 31.966137-31.920988l108.630688 108.585538a22.574956 22.574956 0 0 1-0.04515 31.966137zM752.152381 380.613757a22.574956 22.574956 0 0 1-22.574956-22.574956v-173.872311c0-15.802469-12.867725-28.625044-28.670194-28.625044h-408.155203a28.625044 28.625044 0 0 0-28.625044 28.625044V522.06843c0 15.802469 12.822575 28.625044 28.625044 28.625044h197.124515v0.0903c0.22575 0 0.451499-0.13545 0.722399-0.135449a22.574956 22.574956 0 0 1 0 45.149911c-0.22575 0-0.451499-0.13545-0.722399-0.135449v0.180599H292.752028c-40.680071 0-73.774956-33.094885-73.774956-73.774956v-337.85679c0-40.634921 33.094885-73.774956 73.774956-73.774956h408.155203c40.634921 0 73.820106 33.094885 73.820106 73.774956V357.813051h-0.0903l0.0903 0.2709a22.574956 22.574956 0 0 1-22.574956 22.529806z"  horiz-adv-x="1024" />
      
      <glyph glyph-name="oahuiyiguanli" unicode="&#58992;" d="M864.711111 810.666667H153.6C102.4 810.666667 56.888889 770.844444 56.888889 725.333333v-546.133333c0-45.511111 45.511111-85.333333 96.711111-85.333333h119.466667V-14.222222c0-17.066667 11.377778-28.444444 28.444444-28.444445s28.444444 11.377778 28.444445 28.444445v102.4h369.777777V-14.222222c0-17.066667 11.377778-28.444444 28.444445-28.444445s28.444444 11.377778 28.444444 28.444445v102.4H887.466667c17.066667 0 39.822222 5.688889 51.2 17.066666 17.066667 17.066667 34.133333 39.822222 34.133333 68.266667V725.333333c-5.688889 45.511111-51.2 85.333333-108.088889 85.333334z m34.133333-659.911111c-5.688889-5.688889-11.377778-5.688889-22.755555-5.688889H153.6c-22.755556 0-39.822222 17.066667-39.822222 34.133333V725.333333c0 17.066667 17.066667 28.444444 39.822222 28.444445h711.111111c28.444444 0 45.511111-11.377778 45.511111-28.444445v-540.444444c0-17.066667-5.688889-28.444444-11.377778-34.133333zM512 691.2c-17.066667 0-28.444444-11.377778-28.444444-28.444444v-438.044445c0-17.066667 11.377778-28.444444 28.444444-28.444444s28.444444 11.377778 28.444444 28.444444V662.755556c0 17.066667-11.377778 28.444444-28.444444 28.444444zM324.266667 548.977778c-17.066667 0-28.444444-11.377778-28.444445-28.444445v-290.133333c0-17.066667 11.377778-28.444444 28.444445-28.444444s28.444444 11.377778 28.444444 28.444444V520.533333c0 11.377778-11.377778 28.444444-28.444444 28.444445zM699.733333 548.977778c-17.066667 0-28.444444-11.377778-28.444444-28.444445v-290.133333c0-17.066667 11.377778-28.444444 28.444444-28.444444s28.444444 11.377778 28.444445 28.444444V520.533333c0 11.377778-11.377778 28.444444-28.444445 28.444445z"  horiz-adv-x="1024" />
      
      <glyph glyph-name="executor" unicode="&#58993;" d="M281.375 63.375C343.25 18.375 427.625-9.75 512-9.75c84.375 0 168.75 28.125 230.625 73.125-16.875 33.75-33.75 61.875-61.875 90-22.5 22.5-50.625 39.375-84.375 50.625h-5.625c-22.5-11.25-50.625-16.875-78.75-16.875-28.125 0-56.25 5.625-84.375 11.25-22.5-5.625-45-16.875-67.5-33.75-33.75-16.875-61.875-56.25-78.75-101.25z m-39.375 33.75c22.5 45 56.25 84.375 95.625 118.125 11.25 11.25 28.125 16.875 39.375 28.125-16.875 11.25-33.75 33.75-45 56.25-22.5 39.375-33.75 84.375-28.125 129.375 5.625 95.625 84.375 180 180 196.875H512c28.125 0 56.25-5.625 78.75-16.875 33.75-16.875 61.875-33.75 84.375-67.5 22.5-28.125 39.375-61.875 45-101.25 5.625-39.375 0-78.75-11.25-118.125-11.25-33.75-33.75-67.5-61.875-90 22.5-11.25 45-28.125 67.5-45 28.125-28.125 50.625-61.875 67.5-95.625C855.125 170.25 905.75 271.5 905.75 384c0 219.375-174.375 393.75-393.75 393.75S118.25 603.375 118.25 384c0-112.5 50.625-213.75 123.75-286.875zM512-66c-247.5 0-450 202.5-450 450s202.5 450 450 450 450-202.5 450-450-202.5-450-450-450z m-67.5 320.625c22.5-11.25 50.625-11.25 73.125-11.25 28.125 0 50.625 5.625 73.125 16.875 33.75 16.875 61.875 50.625 73.125 84.375 11.25 28.125 11.25 61.875 11.25 95.625-5.625 28.125-16.875 56.25-33.75 78.75-33.75 33.75-73.125 56.25-123.75 56.25-45 0-95.625-16.875-123.75-50.625-50.625-56.25-61.875-135-22.5-202.5 16.875-28.125 39.375-50.625 73.125-67.5z"  horiz-adv-x="1024" />
      
      <glyph glyph-name="liebiao2" unicode="&#58994;" d="M213.333333 384m0-106.666667a106.666667 106.666667 0 1 1 0 213.333334 106.666667 106.666667 0 1 1 0-213.333334ZM512 384m0-106.666667a106.666667 106.666667 0 1 1 0 213.333334 106.666667 106.666667 0 1 1 0-213.333334ZM810.666667 384m0-106.666667a106.666667 106.666667 0 1 1 0 213.333334 106.666667 106.666667 0 1 1 0-213.333334Z"  horiz-adv-x="1024" />
      
      <glyph glyph-name="icon_xinyong_xianxing_jijin-" unicode="&#58997;" d="M512-128c-17.92 0-34.56 1.28-52.48 2.56-19.2 1.28-35.84 3.84-51.2 7.68-16.64 3.84-33.28 7.68-48.64 12.8-15.36 5.12-30.72 10.24-47.36 16.64-15.36 6.4-30.72 14.08-44.8 21.76-14.08 7.68-29.44 16.64-42.24 25.6-14.08 8.96-26.88 19.2-39.68 29.44-12.8 10.24-24.32 21.76-35.84 33.28-11.52 11.52-23.04 24.32-33.28 35.84-10.24 12.8-20.48 25.6-29.44 39.68-8.96 14.08-17.92 28.16-25.6 42.24-7.68 14.08-15.36 29.44-21.76 44.8-6.4 15.36-12.8 32-16.64 47.36-5.12 16.64-8.96 33.28-12.8 48.64-3.84 16.64-6.4 33.28-7.68 51.2-3.84 34.56-3.84 70.4 0 104.96 2.56 17.92 5.12 37.12 7.68 49.92 3.84 17.92 7.68 34.56 12.8 49.92 5.12 15.36 10.24 30.72 16.64 47.36 6.4 15.36 14.08 30.72 21.76 44.8 7.68 14.08 16.64 29.44 25.6 42.24 8.96 14.08 19.2 26.88 29.44 39.68 10.24 12.8 21.76 24.32 33.28 35.84 11.52 11.52 24.32 23.04 35.84 33.28 12.8 10.24 25.6 20.48 39.68 29.44 14.08 8.96 28.16 17.92 42.24 25.6 14.08 7.68 29.44 15.36 44.8 21.76 15.36 6.4 32 12.8 47.36 16.64 16.64 5.12 33.28 8.96 48.64 12.8 16.64 3.84 33.28 6.4 51.2 7.68 34.56 3.84 70.4 3.84 104.96 0 14.08-1.28 24.32-14.08 23.04-28.16-1.28-14.08-14.08-24.32-28.16-23.04-30.72 3.84-62.72 3.84-94.72 0-15.36-1.28-30.72-3.84-46.08-6.4-14.08-2.56-28.16-6.4-43.52-11.52L332.8 808.96c-14.08-5.12-26.88-12.8-39.68-19.2s-25.6-14.08-38.4-23.04c-11.52-7.68-24.32-16.64-35.84-26.88-11.52-8.96-21.76-19.2-33.28-29.44-10.24-10.24-20.48-21.76-29.44-33.28-8.96-11.52-17.92-23.04-26.88-35.84-7.68-11.52-15.36-24.32-23.04-38.4-7.68-12.8-14.08-26.88-19.2-39.68-6.4-14.08-11.52-28.16-15.36-42.24-3.84-14.08-8.96-28.16-11.52-43.52-2.56-12.8-5.12-29.44-6.4-46.08-3.84-30.72-3.84-62.72 0-94.72 1.28-15.36 3.84-30.72 6.4-46.08 2.56-14.08 6.4-28.16 11.52-43.52L87.04 204.8c5.12-14.08 12.8-26.88 19.2-39.68s14.08-25.6 23.04-38.4c7.68-11.52 16.64-24.32 26.88-35.84 8.96-11.52 19.2-21.76 29.44-33.28 10.24-10.24 21.76-20.48 33.28-29.44 11.52-8.96 23.04-17.92 35.84-26.88 11.52-7.68 24.32-15.36 38.4-23.04 12.8-7.68 26.88-14.08 39.68-19.2 14.08-6.4 28.16-11.52 42.24-15.36 14.08-3.84 28.16-7.68 44.8-11.52 14.08-2.56 28.16-5.12 46.08-6.4 2.56 0 6.4 0 8.96-1.28l-35.84 90.88c-5.12 12.8 1.28 28.16 14.08 33.28 12.8 5.12 28.16-1.28 33.28-14.08l51.2-128c2.56-7.68 2.56-16.64-2.56-24.32-6.4-6.4-14.08-10.24-23.04-10.24zM701.44 806.4c-3.84 0-6.4 0-10.24 2.56-14.08 6.4-28.16 11.52-42.24 15.36-14.08 3.84-20.48 17.92-16.64 32 3.84 14.08 19.2 20.48 32 16.64 15.36-5.12 30.72-10.24 47.36-16.64 12.8-5.12 19.2-20.48 14.08-33.28-5.12-10.24-14.08-16.64-24.32-16.64zM821.76 733.44c-6.4 0-11.52 2.56-16.64 6.4-11.52 8.96-23.04 17.92-35.84 26.88-11.52 7.68-15.36 24.32-6.4 35.84 7.68 11.52 24.32 15.36 35.84 6.4 14.08-8.96 26.88-19.2 39.68-29.44 10.24-8.96 12.8-25.6 3.84-35.84-6.4-6.4-14.08-10.24-20.48-10.24zM915.2 629.76c-7.68 0-16.64 3.84-21.76 11.52-7.68 12.8-16.64 24.32-26.88 35.84-8.96 10.24-7.68 26.88 3.84 35.84 10.24 8.96 26.88 7.68 35.84-3.84 10.24-12.8 20.48-25.6 29.44-39.68 7.68-11.52 5.12-28.16-6.4-35.84-3.84-1.28-8.96-3.84-14.08-3.84zM976.64 503.04c-11.52 0-20.48 6.4-24.32 17.92-3.84 14.08-8.96 28.16-15.36 42.24-5.12 12.8 0 28.16 14.08 33.28 12.8 5.12 28.16 0 33.28-14.08 6.4-15.36 12.8-32 16.64-47.36 3.84-14.08-3.84-28.16-16.64-32h-7.68zM998.4 358.4c-14.08 0-25.6 11.52-25.6 25.6 0 15.36-1.28 32-2.56 47.36-1.28 14.08 8.96 26.88 23.04 28.16 14.08 1.28 26.88-8.96 28.16-23.04 1.28-17.92 2.56-34.56 2.56-52.48 0-14.08-11.52-25.6-25.6-25.6zM976.64 213.76c-2.56 0-5.12 0-7.68 1.28-14.08 3.84-20.48 17.92-16.64 32 3.84 14.08 7.68 28.16 11.52 44.8 2.56 14.08 16.64 23.04 30.72 19.2 14.08-2.56 23.04-16.64 19.2-30.72-3.84-16.64-7.68-33.28-12.8-48.64-3.84-11.52-14.08-17.92-24.32-17.92zM915.2 85.76c-5.12 0-10.24 1.28-14.08 3.84-11.52 7.68-14.08 24.32-6.4 35.84 7.68 11.52 15.36 24.32 23.04 38.4 6.4 12.8 21.76 16.64 34.56 10.24 12.8-6.4 16.64-21.76 10.24-34.56-7.68-15.36-16.64-29.44-25.6-42.24-5.12-6.4-14.08-11.52-21.76-11.52zM821.76-16.64c-7.68 0-15.36 3.84-19.2 8.96-8.96 11.52-7.68 26.88 3.84 35.84 11.52 8.96 21.76 19.2 33.28 29.44 10.24 10.24 25.6 10.24 35.84 0s10.24-25.6 0-35.84c-11.52-11.52-24.32-23.04-35.84-33.28-6.4-3.84-12.8-5.12-17.92-5.12zM701.44-89.6c-10.24 0-19.2 6.4-23.04 15.36-5.12 12.8 1.28 28.16 14.08 33.28 14.08 5.12 26.88 12.8 39.68 19.2s28.16 2.56 34.56-10.24 2.56-28.16-10.24-34.56c-14.08-7.68-29.44-15.36-44.8-21.76-3.84-1.28-7.68-1.28-10.24-1.28zM691.2 230.4c-5.12 0-10.24 1.28-15.36 5.12l-179.2 128c-6.4 5.12-10.24 12.8-10.24 20.48V665.6c0 14.08 11.52 25.6 25.6 25.6s25.6-11.52 25.6-25.6v-268.8l168.96-120.32c11.52-7.68 14.08-24.32 6.4-35.84-6.4-6.4-14.08-10.24-21.76-10.24z"  horiz-adv-x="1024" />
      
      <glyph glyph-name="duorenwu" unicode="&#58998;" d="M807.253333 546.133333l-240.64 126.293334c-1.706667 1.706667-5.12 1.706667-6.826666 0l-240.64-126.293334c-1.706667-1.706667-3.413333-3.413333-3.413334-6.826666 0-1.706667 1.706667-5.12 3.413334-6.826667l240.64-129.706667c1.706667-1.706667 5.12-1.706667 6.826666 0l240.64 129.706667c1.706667 1.706667 3.413333 3.413333 3.413334 6.826667s0 6.826667-3.413334 6.826666zM742.4 896h-358.4C199.68 896 51.2 747.52 51.2 563.2v-358.4C51.2 20.48 199.68-128 384-128h358.4C926.72-128 1075.2 20.48 1075.2 204.8v358.4C1075.2 747.52 926.72 896 742.4 896z m157.013333-677.546667c-1.706667-1.706667-3.413333-5.12-6.826666-6.826666l-296.96-163.84c-20.48-10.24-44.373333-10.24-64.853334 0l-300.373333 163.84c-8.533333 5.12-11.946667 15.36-6.826667 23.893333 1.706667 3.413333 3.413333 5.12 5.12 6.826667 15.36 10.24 35.84 11.946667 51.2 1.706666l250.88-131.413333c20.48-10.24 42.666667-10.24 63.146667 0l247.466667 131.413333c17.066667 8.533333 35.84 6.826667 51.2-1.706666 10.24-5.12 11.946667-15.36 6.826666-23.893334z m0 157.013334c-1.706667-1.706667-3.413333-5.12-6.826666-6.826667l-296.96-163.84c-20.48-10.24-44.373333-10.24-64.853334 0l-300.373333 163.84c-8.533333 5.12-11.946667 15.36-6.826667 23.893333 1.706667 3.413333 3.413333 5.12 5.12 6.826667 15.36 10.24 35.84 11.946667 51.2 1.706667l250.88-131.413334c20.48-10.24 42.666667-10.24 63.146667 0L841.386667 401.066667c17.066667 8.533333 35.84 6.826667 51.2-1.706667 10.24-5.12 11.946667-15.36 6.826666-23.893333z m5.12 158.72l-5.12-5.12-324.266666-174.08c-8.533333-5.12-17.066667-5.12-25.6 0L226.986667 529.066667c-6.826667 3.413333-8.533333 11.946667-5.12 18.773333l5.12 5.12 322.56 170.666667c8.533333 3.413333 17.066667 3.413333 25.6 0l324.266666-170.666667c6.826667-5.12 8.533333-13.653333 5.12-18.773333z"  horiz-adv-x="1126" />
      
      <glyph glyph-name="shaixuan2" unicode="&#58999;" d="M547.84-73.547294a32.286118 32.286118 0 0 0-31.744 32.707765V519.047529c0 7.830588 2.710588 15.36 7.710118 21.323295L764.385882 829.138824H111.917176l220.882824-289.912471a33.551059 33.551059 0 0 0 6.806588-20.239059v-334.305882l95.472941-98.544941c5.903059-6.144 9.155765-14.456471 9.09553-23.130353a33.129412 33.129412 0 0 0-9.456941-23.070118 31.021176 31.021176 0 0 0-44.513883 0L285.515294 148.118588a33.069176 33.069176 0 0 0-9.276235 23.130353V507.723294L21.744941 841.667765A33.490824 33.490824 0 0 0 27.045647 887.627294 31.201882 31.201882 0 0 0 46.622118 894.674824h786.793411c8.432941 0 16.504471-3.433412 22.40753-9.637648a33.370353 33.370353 0 0 0 1.626353-44.453647L579.523765 506.88v-547.719529c0-18.070588-14.215529-32.707765-31.683765-32.707765M701.680941 420.984471a32.286118 32.286118 0 0 0-31.201882 33.129411 32.045176 32.045176 0 0 0 31.322353 32.346353h245.157647c17.528471 0 31.744-14.697412 31.744-32.768 0-18.070588-14.215529-32.707765-31.683765-32.707764h-245.338353z m0-202.511059a32.286118 32.286118 0 0 0-31.683765 32.768c0 18.070588 14.215529 32.647529 31.683765 32.707764h245.338353c17.468235-0.060235 31.623529-14.697412 31.683765-32.768-0.060235-18.070588-14.215529-32.647529-31.683765-32.707764h-245.338353z m0-204.8a31.021176 31.021176 0 0 0-22.407529 9.517176 33.069176 33.069176 0 0 0-9.276236 23.190588c0 18.070588 14.215529 32.647529 31.683765 32.707765h245.338353c17.468235 0 31.623529-14.697412 31.683765-32.768-0.060235-18.070588-14.215529-32.647529-31.683765-32.707765h-245.338353z"  horiz-adv-x="1024" />
      
      <glyph glyph-name="guzhangdengji-" unicode="&#59001;" d="M386.133333 70.4c-14.933333 0-25.6 10.666667-25.6 25.6v121.6c0 14.933333 10.666667 25.6 25.6 25.6s25.6-10.666667 25.6-25.6v-121.6c0-14.933333-12.8-25.6-25.6-25.6zM512 70.4c-14.933333 0-25.6 10.666667-25.6 25.6V343.466667c0 14.933333 10.666667 25.6 25.6 25.6s25.6-10.666667 25.6-25.6v-247.466667c0-14.933333-10.666667-25.6-25.6-25.6zM644.266667 70.4c-14.933333 0-25.6 10.666667-25.6 25.6V477.866667c0 14.933333 10.666667 25.6 25.6 25.6s25.6-10.666667 25.6-25.6v-381.866667c0-14.933333-10.666667-25.6-25.6-25.6zM789.333333 686.933333h-42.666666V640h42.666666v-605.866667H262.4V640h46.933333V686.933333h-44.8c-25.6 0-46.933333-21.333333-46.933333-49.066666v-603.733334c0-25.6 21.333333-49.066667 46.933333-49.066666H789.333333c25.6 0 46.933333 21.333333 46.933334 49.066666V637.866667c0 27.733333-19.2 49.066667-46.933334 49.066666zM701.866667 782.933333H354.133333c-23.466667 0-44.8-19.2-44.8-44.8V597.333333c0-23.466667 19.2-44.8 44.8-44.8h347.733334c23.466667 0 44.8 19.2 44.8 44.8V738.133333c0 25.6-21.333333 44.8-44.8 44.8z m-2.133334-181.333333h-341.333333V736h341.333333v-134.4z"  horiz-adv-x="1024" />
      
      <glyph glyph-name="loufang" unicode="&#62251;" d="M582.144-40.294399999999996H175.1552V691.3024c0 56.576 45.824 102.4 102.4 102.4H479.744c56.576 0 102.4-45.824 102.4-102.4v-731.5968zM752.4864 596.992H612.864V691.3024c0 73.4208-59.6992 133.12-133.12 133.12H277.5552c-73.4208 0-133.12-59.6992-133.12-133.12v-731.5968c0-16.9472 13.7728-30.72 30.72-30.72h679.7312c16.9472 0 30.72 13.7728 30.72 30.72V463.872c0 73.3696-59.6992 133.12-133.12 133.12zM205.8752 691.3024c0 39.5264 32.1536 71.68 71.68 71.68H479.744c39.5264 0 71.68-32.1536 71.68-71.68v-700.8768H205.8752V691.3024z m618.2912-700.8768H612.864V535.552h139.6736c39.5264 0 71.68-32.1536 71.68-71.68v-473.4464zM454.8608 497.6128H301.9264c-16.9472 0-30.72 13.7728-30.72 30.72s13.7728 30.72 30.72 30.72h152.9344c16.9472 0 30.72-13.7728 30.72-30.72s-13.7216-30.72-30.72-30.72zM454.8608 352.56320000000005H301.9264c-16.9472 0-30.72 13.7728-30.72 30.72s13.7728 30.72 30.72 30.72h152.9344c16.9472 0 30.72-13.7728 30.72-30.72s-13.7216-30.72-30.72-30.72zM454.8608 195.63520000000005H301.9264c-16.9472 0-30.72 13.7728-30.72 30.72s13.7728 30.72 30.72 30.72h152.9344c16.9472 0 30.72-13.7728 30.72-30.72s-13.7216-30.72-30.72-30.72zM930.7136-71.01440000000002H104.3456c-16.9472 0-30.72 13.7728-30.72 30.72s13.7728 30.72 30.72 30.72h826.368c16.9472 0 30.72-13.7728 30.72-30.72s-13.7728-30.72-30.72-30.72zM748.032 345.9584h-58.8288c-16.9472 0-30.72 13.7728-30.72 30.72s13.7728 30.72 30.72 30.72h58.8288c16.9472 0 30.72-13.7728 30.72-30.72s-13.7728-30.72-30.72-30.72zM748.032 195.63520000000005h-58.8288c-16.9472 0-30.72 13.7728-30.72 30.72s13.7728 30.72 30.72 30.72h58.8288c16.9472 0 30.72-13.7728 30.72-30.72s-13.7728-30.72-30.72-30.72z"  horiz-adv-x="1024" />
      
      <glyph glyph-name="caidanguanli" unicode="&#59048;" d="M704.8 539h-275c-21.9 0-40.6 18.8-40.6 40.6s18.8 40.6 40.6 40.6h275c21.9 0 40.6-18.8 40.6-40.6S726.7 539 704.8 539m0-209.4h-275c-21.9 0-40.6 18.8-40.6 40.6 0 21.9 18.8 40.6 40.6 40.6h275c21.9 0 40.6-18.8 40.6-40.6 0.1-21.8-18.7-40.6-40.6-40.6m0-212.5h-275c-21.9 0-40.6 18.8-40.6 40.6 0 21.9 18.8 40.6 40.6 40.6h275c21.9 0 40.6-18.8 40.6-40.6s-18.7-40.6-40.6-40.6M301.7 539c-21.9 0-40.6 18.8-40.6 40.6s18.8 43.8 40.6 43.8 40.6-18.8 40.6-43.8-18.7-40.6-40.6-40.6m0-209.4c-21.9 0-37.5 21.9-37.5 43.8S283 414 301.7 414c21.9 0 40.6-18.8 40.6-40.6 0-25-18.7-43.8-40.6-43.8m0-212.5c-21.9 0-37.5 21.9-37.5 43.8s18.8 40.6 37.5 40.6c21.9 0 40.6-18.8 40.6-40.6 0-25-18.7-43.8-40.6-43.8M854.6 832.7H173.1c-42 0-75.1-36.2-75.1-81.5v-733.9c0-45.3 33-81.5 75.1-81.5h681.5c42 0 75.1 36.2 75.1 81.5V751.2c3 45.3-33.1 81.5-75.1 81.5"  horiz-adv-x="1024" />
      
      <glyph glyph-name="shield-enable-" unicode="&#59479;" d="M512 834.56l320-142.21312A81.92 81.92 0 0 0 880.64 617.472v-206.90944A491.52 491.52 0 0 0 544.5632-55.7056L512-66.56l-32.5632 10.8544A491.52 491.52 0 0 0 143.36 410.58304V617.49248a81.92 81.92 0 0 0 48.64 74.8544L512 834.56z m-41.02144-473.86624a44.7488 44.7488 0 0 0-55.0912-1.78176l-52.81792 38.46144a35.28704 35.28704 0 0 1-46.12096-3.91168 34.48832 34.48832 0 0 1-2.06848-45.71136l85.58592-105.22624a59.76064 59.76064 0 0 1 90.64448-3.072l217.12896 233.49248a32.256 32.256 0 0 1-0.55296 44.35968 33.11616 33.11616 0 0 1-44.99456 2.37568l-191.71328-158.98624z"  horiz-adv-x="1024" />
      
      <glyph glyph-name="lock-fill" unicode="&#59321;" d="M467.2 182.08000000000004v-115.968a44.8 44.8 0 0 1 89.6 0v115.968c26.752 14.72 44.8 42.304 44.8 73.92 0 47.104-40.128 85.312-89.6 85.312-49.472 0-89.6-38.208-89.6-85.312 0-31.616 18.048-59.136 44.8-73.92zM64 512h896v-640H64V512z m268.8 0h358.4V640c0 94.272-80.256 170.688-179.2 170.688-98.944 0-179.2-76.416-179.2-170.688v-128zM512 896c148.48 0 268.8-114.56 268.8-256v-128H243.2V640c0 141.44 120.32 256 268.8 256z"  horiz-adv-x="1024" />
      
      <glyph glyph-name="gongzuoliuchengtu" unicode="&#58985;" d="M983.964-57.145 846.307-57.145c-21.721 0-39.33 17.575-39.33 39.249L806.977 99.859c0 21.677 17.609 39.249 39.33 39.249l39.33 0L885.637 315.737c0 21.679-17.607 39.251-39.33 39.251L531.664 354.988l0-215.88 39.332 0c21.721 0 39.33-17.572 39.33-39.249l0-117.756c0-21.674-17.609-39.249-39.33-39.249L433.34-57.146c-21.723 0-39.33 17.575-39.33 39.249L394.01 99.859c0 21.677 17.607 39.249 39.33 39.249l39.33 0 0 215.88L177.693 354.988c-21.721 0-39.33-17.572-39.33-39.251l0-176.629 39.33 0c21.721 0 39.33-17.572 39.33-39.249l0-117.756c0-21.674-17.609-39.249-39.33-39.249L40.036-57.146c-21.721 0-39.33 17.575-39.33 39.249L0.706 99.859c0 21.677 17.609 39.249 39.33 39.249l39.33 0L79.366 335.364c0 43.355 35.219 78.502 78.663 78.502L472.67 413.866 472.67 629.743l-39.33 0c-21.723 0-39.33 17.575-39.33 39.253L394.01 786.748c0 21.679 17.607 39.251 39.33 39.251l137.657 0c21.721 0 39.33-17.572 39.33-39.251l0-117.751c0-21.679-17.609-39.253-39.33-39.253l-39.332 0 0-215.878 334.309 0c43.441 0 78.66-35.147 78.66-78.502l0-196.255 39.33 0c21.721 0 39.33-17.572 39.33-39.249l0-117.756C1023.294-39.571 1005.684-57.145 983.964-57.145z"  horiz-adv-x="1024" />
      
      <glyph glyph-name="close" unicode="&#58984;" d="M557.312 382.752l265.28 263.904c12.544 12.48 12.608 32.704 0.128 45.248-12.512 12.576-32.704 12.608-45.248 0.128l-265.344-263.936-263.04 263.84C236.64 704.416 216.384 704.48 203.84 692 191.328 679.52 191.296 659.264 203.776 646.72l262.976-263.776L201.6 119.2c-12.544-12.48-12.608-32.704-0.128-45.248 6.24-6.272 14.464-9.44 22.688-9.44 8.16 0 16.32 3.104 22.56 9.312l265.216 263.808 265.44-266.24c6.24-6.272 14.432-9.408 22.656-9.408 8.192 0 16.352 3.136 22.592 9.344 12.512 12.48 12.544 32.704 0.064 45.248L557.312 382.752z"  horiz-adv-x="1024" />
      
      <glyph glyph-name="dian" unicode="&#60539;" d="M512 384m-160 0a160 160 0 1 1 320 0 160 160 0 1 1-320 0Z"  horiz-adv-x="1024" />
      
      <glyph glyph-name="lahei1" unicode="&#59281;" d="M511.572258-62.258717c-246.705821 0-446.712041 200.002127-446.712041 446.706925S264.86746 831.160249 511.572258 831.160249 958.279183 631.15403 958.279183 384.449231 758.300592-62.258717 511.572258-62.258717L511.572258-62.258717zM511.572258 31.792333c77.991282 0 149.808958 25.623587 208.208019 68.467371L227.383754 592.656227c-42.843784-58.393945-68.471464-130.216737-68.471464-208.208019C158.911266 189.664943 316.806389 31.792333 511.572258 31.792333L511.572258 31.792333zM511.572258 737.110223c-72.773444 0-140.369981-22.071691-196.531072-59.823504l489.36856-489.36856c37.751812 56.165184 59.81941 123.761722 59.81941 196.531072C864.246553 579.219193 706.33915 737.110223 511.572258 737.110223L511.572258 737.110223z"  horiz-adv-x="1024" />
      
      <glyph glyph-name="shuxing-" unicode="&#59172;" d="M197.063 14.45c-27.307 0-50.973 21.845-50.973 50.973v553.415c0 27.307 21.845 50.973 50.973 50.973h116.509c18.205 0 34.589-10.923 41.87-29.127s1.821-36.409-12.743-49.152l-16.384-14.563h-87.381v-471.495h496.981v109.227l12.743 9.102c9.102 5.461 18.205 9.102 29.127 9.102 27.307 0 50.973-21.845 50.973-50.973v-120.149c0-27.307-21.845-50.973-50.973-50.973h-580.722v3.641zM637.611 431.331c-29.127 0-54.613-1.821-74.638-3.641-5.461 0-10.923 0-14.563-1.821-10.923 0-16.384-1.821-40.050-7.282-30.947-7.282-60.075-20.025-87.381-38.229-5.461-3.641-10.923-7.282-18.205-10.923-27.307-16.384-65.536-40.050-83.741-61.895-5.461-7.282-12.743-10.923-20.025-10.923h-5.461c-10.923 1.821-18.205 10.923-18.205 21.845v3.641c10.923 56.434 25.486 103.765 43.691 141.995s40.050 72.818 69.177 101.945c29.127 29.127 65.536 50.973 109.227 65.536 40.050 12.743 85.561 18.205 140.174 20.025v149.277l294.912-258.503-294.912-258.503v147.456z"  horiz-adv-x="1024" />
      
      <glyph glyph-name="piliangshanchu" unicode="&#58975;" d="M347.974 551.395h60.662v-470.016h-60.662zM712.982 377.437c-121.568 0-220.119-98.551-220.119-220.118s98.55-220.117 220.119-220.117c121.566 0 220.117 98.55 220.117 220.117s-98.55 220.118-220.117 220.118z m89.005-360.889H584.025c-10.979 0-19.909 9.666-19.909 21.548 0 11.878 8.944 21.543 19.938 21.543h217.911c10.995 0 19.94-9.665 19.94-21.543 0.001-11.882-8.934-21.548-19.918-21.548zM564.116 146.074c0 11.879 8.966 21.542 19.987 21.542h196.255c11.022 0 19.99-9.663 19.99-21.542 0-11.884-8.964-21.549-19.979-21.549H584.096c-11.016 0-19.98 9.665-19.98 21.549zM857.127 232.5H583.973c-10.949 0-19.856 9.662-19.856 21.54 0 11.883 8.965 21.55 19.982 21.55h272.912c11.017 0 19.979-9.667 19.979-21.55 0-11.878-8.911-21.54-19.863-21.54zM607.698 404.938V551.395h-60.667v-183.298a270.258 270.258 0 0 0 60.667 36.841zM493.484 4.212l-272.402-0.829V628.084h511.394l0.186-200.937c21.859-1.306 43.021-5.197 63.177-11.395V628.084h61.426v63.428H686.844v84.014c0 31.014-27.844 55.273-63.427 55.273H330.074c-35.579 0-63.423-24.291-63.423-55.273v-84.014H90.9v-63.428h66.725v-624.701c0-34.121 28.443-61.87 63.422-61.87h332.425a271.814 271.814 0 0 0-59.988 62.699z m-163.41 763.164h293.343v-75.864H330.074v75.864z"  horiz-adv-x="1024" />
      
      <glyph glyph-name="gengduo-copy" unicode="&#58976;" d="M971.05157095 883.06851985c29.15520563 0 45.1619852-36.01525401 24.58184005-56.59539915l-447.04648629-447.04648628 440.18643789-439.04309652c12.57675538-14.86343816 12.00508469-34.30024191 0-48.02033868-12.57675538-12.57675538-35.44358332-12.57675538-48.02033865 0l-462.48159516 463.62493655c-13.72009676 13.72009676-12.57675538 34.30024192 0 46.87699729l469.34164351 470.48498492c6.86004838 6.86004838 16.00677956 9.71840188 23.43849865 9.71840187zM510.28498791 883.06851985c29.15520563 0 45.1619852-36.01525401 24.58184004-56.59539915l-447.04648629-447.04648628 440.1864379-439.04309652c12.57675538-14.86343816 12.00508469-34.30024191 0-48.02033868-12.57675538-12.57675538-35.44358332-12.57675538-48.02033868 0l-462.48159515 463.62493655c-13.72009676 13.72009676-12.57675538 34.30024192 0 46.87699729l469.34164354 470.48498492c6.86004838 6.86004838 16.00677956 9.71840188 23.43849864 9.71840187z"  horiz-adv-x="1024" />
      
      <glyph glyph-name="shanchu3" unicode="&#58977;" d="M799.317333 33.621333a62.464 62.464 0 0 0-62.378666-62.464h-449.706667a62.464 62.464 0 0 0-62.293333 62.464V695.978667h574.293333v-662.357334z m-449.706666 774.4c0 7.168 5.632 12.8 12.8 12.8h300.032c7.253333 0 12.8-5.632 12.8-12.8v-37.546666H349.696v37.546666z m636.842666-37.546666H749.653333v37.546666C749.653333 855.893333 710.485333 895.146667 662.442667 895.146667H362.581333a87.381333 87.381333 0 0 1-87.210666-87.210667v-37.546667H37.717333a37.546667 37.546667 0 1 1 0-75.264h111.957334v-661.589333c0-75.946667 61.610667-137.642667 137.642666-137.642667h449.536c75.946667 0 137.642667 61.610667 137.642667 137.642667V695.978667h111.957333a37.546667 37.546667 0 0 1 37.632 37.546666 36.864 36.864 0 0 1-37.546666 36.864zM512.085333 83.882667a37.546667 37.546667 0 0 1 37.546667 37.632V521.557333a37.546667 37.546667 0 1 1-75.093333 0v-399.957333c0-20.821333 16.725333-37.546667 37.546666-37.546667z m-175.189333 0a37.546667 37.546667 0 0 1 37.546667 37.632V521.557333a37.546667 37.546667 0 1 1-75.093334 0v-399.957333c0.768-20.821333 17.493333-37.546667 37.546667-37.546667z m350.378667 0a37.546667 37.546667 0 0 1 37.632 37.632V521.557333a37.546667 37.546667 0 1 1-75.178667 0v-399.957333c0-20.821333 16.725333-37.546667 37.546667-37.546667z"  horiz-adv-x="1024" />
      
      <glyph glyph-name="dayin1" unicode="&#58979;" d="M847 616.1h-56V797.8H231.6v-181.7h-55.9c-61.7 0-111.9-46.6-111.9-103.8v-337.4h167.8v-207.6H791V174.9h167.8V512.3c0.1 57.3-50.1 103.8-111.8 103.8zM287.6 745.9h447.5v-129.8H287.6V745.9z m447.5-726.7H287.6V252.8h447.5v-233.6z m167.8 207.7H791v77.9H231.6v-77.9H119.7V512.3c0 28.6 25.1 51.9 55.9 51.9H847c30.8 0 55.9-23.3 55.9-51.9v-285.4zM511.3 486.4H259.6c-15.5 0-28-11.6-28-26 0-14.3 12.5-26 28-26h251.7c15.5 0 28 11.6 28 26s-12.5 26-28 26z"  horiz-adv-x="1024" />
      
      <glyph glyph-name="fanhui1" unicode="&#58980;" d="M289.344 435.328c13.696 0 27.392-5.632 38.336-16.32l444.736-451.584a56.768 56.768 0 0 0 0.448-78.72 53.312 53.312 0 0 0-76.608-0.512L251.584 339.712a56.768 56.768 0 0 0-0.512 78.72 48.896 48.896 0 0 0 38.208 16.896h0.064zM733.632 896c13.76 0 27.584-5.568 38.592-16.192a55.68 55.68 0 0 0 0.576-78.016L328.96 349.312a54.4 54.4 0 0 0-77.248-0.576 55.68 55.68 0 0 0-0.576 78.08L695.04 879.232A53.312 53.312 0 0 0 733.696 896h-0.064z"  horiz-adv-x="1024" />
      
      <glyph glyph-name="jiahaozengjia" unicode="&#58981;" d="M821 332.8H566.2v-254.9c0-28.1-22.8-51-51-51-28.1 0-51 22.8-51 51V332.8H209.4c-28.1 0-51 22.8-51 51 0 28.1 22.8 51 51 51h254.8V689.6c0 28.1 22.8 51 51 51s51-22.8 51-51v-254.9H821c28.2 0 51-22.8 51-51 0-28.1-22.8-50.9-51-50.9z"  horiz-adv-x="1024" />
      
      <glyph glyph-name="piliangxinzeng" unicode="&#58982;" d="M565.475556 154.737778h56.888888v142.222222h142.222223v56.888889h-142.222223v142.222222h-56.888888v-142.222222h-142.222223v-56.888889h142.222223v-142.222222zM238.933333 657.066667v-682.666667h682.666667v682.666667z m625.777778-625.777778h-568.888889v568.888889h568.888889zM159.288889 736.711111h568.888889v-22.755555h56.888889V793.6h-682.666667v-682.666667h79.644444v56.888889h-22.755555v568.888889z"  horiz-adv-x="1024" />
      
      <glyph glyph-name="shangchuanfujian" unicode="&#58983;" d="M972.755442 281.394522a50.376102 50.376102 0 0 1-36.185651-14.899974 52.50467 52.50467 0 0 1-14.899974-36.185651v-205.052022a50.376102 50.376102 0 0 0-14.899974-36.185651 53.214193 53.214193 0 0 0-36.185651-14.899974H153.966397a51.085625 51.085625 0 0 0-51.795147 51.085625V230.308897a48.957057 48.957057 0 0 1-14.899974 36.185651 48.957057 48.957057 0 0 1-36.185651 14.899974 50.376102 50.376102 0 0 1-36.185651-14.899974 52.50467 52.50467 0 0 1-14.899974-36.185651v-205.052022a156.094965 156.094965 0 0 1 44.699922-108.556953 156.094965 156.094965 0 0 1 109.266475-44.699922h716.617795a156.094965 156.094965 0 0 1 108.556953 44.699922 153.256875 153.256875 0 0 1 44.699922 108.556953V230.308897a51.085625 51.085625 0 0 1-51.085625 51.085625zM343.408923 603.517769L461.18967 721.298515v-490.989618a50.376102 50.376102 0 0 1 14.899974-36.185651 52.50467 52.50467 0 0 1 36.185651-14.899974 51.085625 51.085625 0 0 1 51.085625 51.085625V721.298515l117.071224-117.780746a55.34276 55.34276 0 0 1 17.028541-11.352362 57.471328 57.471328 0 0 1 19.15711 0 61.728463 61.728463 0 0 1 19.866632 0 55.34276 55.34276 0 0 1 17.028541 11.352362 53.214193 53.214193 0 0 1 10.642839 17.028541 46.82849 46.82849 0 0 1 4.257135 19.15711 47.538012 47.538012 0 0 1-4.257135 19.866631 53.214193 53.214193 0 0 1-10.642839 17.028542L548.460946 880.941093a55.34276 55.34276 0 0 1-17.028542 11.352361 53.214193 53.214193 0 0 1-39.023741 0 55.34276 55.34276 0 0 1-17.028542-11.352361L271.037621 676.598593a55.34276 55.34276 0 0 1-11.352361-17.028542 46.82849 46.82849 0 0 1-3.547613-19.866631 46.118967 46.118967 0 0 1 3.547613-19.15711 55.34276 55.34276 0 0 1 11.352361-17.028541 58.890373 58.890373 0 0 1 16.319019-10.642839 50.376102 50.376102 0 0 1 19.866632-4.257135 47.538012 47.538012 0 0 1 19.866632 4.257135 43.280877 43.280877 0 0 1 16.319019 10.642839z"  horiz-adv-x="1024" />
      
      <glyph glyph-name="quxiaolahei" unicode="&#59041;" d="M745.728 341.088a218.432 218.432 0 0 1-218.56-218.56A218.432 218.432 0 0 1 745.76-96a218.432 218.432 0 0 1 218.56 218.56 218.432 218.432 0 0 1-218.56 218.528z m-0.256-383.776a164.8 164.8 0 0 0-165.504 165.504 164.8 164.8 0 0 0 165.504 165.504 164.8 164.8 0 0 0 165.504-165.504 164.8 164.8 0 0 0-165.504-165.504zM835.84 197.312c-5.76 0-13.44-1.92-17.28-7.68l-92-90.08-36.416 36.416c-3.84 3.84-11.52 7.68-17.28 7.68-5.728 0-13.408-1.92-17.216-7.68-3.84-3.84-7.68-11.52-7.68-17.28 0-5.728 1.92-13.408 7.68-17.216l55.584-53.696c3.84-3.84 11.52-7.68 17.28-7.68 5.728 0 13.408 1.92 17.216 7.68l109.28 109.28c3.84 3.84 7.68 11.52 7.68 17.248 0 5.76-1.92 13.44-7.68 17.28-5.76 1.92-11.52 5.728-19.168 5.728zM562.368 365.6c8-2.656 13.344-5.312 21.344-8h2.656c13.312 0 21.312-8 26.656-18.656 5.312-10.656 0-24-8-32-8-7.968-21.312-7.968-32-2.624-2.656 0-5.312 0-8 2.656-37.312 13.312-90.592 26.656-133.248 26.656-189.216 0-338.464-159.904-346.464-346.496 0-16-5.344-26.624-26.656-26.624-16 0-26.656 13.312-26.656 29.312v2.656c5.344 167.904 114.592 314.496 274.528 370.464-85.312 45.312-143.936 133.248-143.936 237.216C162.592 746.72 282.56 864 429.12 864c146.56 0 266.528-117.28 269.184-263.84 2.656-101.28-53.312-186.56-135.936-234.56z m-130.56 445.12c-114.624 0-213.248-98.624-213.248-213.248 0-114.592 98.624-213.216 213.216-213.216 114.592 0 213.216 98.624 213.216 213.216 0 114.624-98.624 213.216-213.216 213.216z"  horiz-adv-x="1024" />
      
      <glyph glyph-name="toupiao" unicode="&#58971;" d="M884.487549 572.979072c10.905374 4.02978 18.10638 14.392802 18.10638 25.950022V775.594723c0 30.859845-24.979928 55.832609-55.834656 55.832609H623.417579c0-61.396325-50.27094-111.667266-111.668289-111.667265-61.396325 0-111.667266 50.27094-111.667266 111.667265H176.74647c-30.861892 0-55.832609-24.972764-55.83261-55.832609v-175.354774c0-12.214183 7.303336-23.231097 18.541285-27.809369 19.188015-7.740288 32.714076-26.609031 32.714076-48.529273 0-21.586644-13.08911-40.127929-31.735795-48.085158-11.779278-5.022387-19.519566-16.467043-19.519566-29.231765v-472.730625c0-19.741623 16.030092-35.771715 35.766599-35.771715h710.139709c19.741623 0 35.773761 16.030092 35.773761 35.771715V448.110133c0 12.001335-7.52744 22.579251-18.758226 26.935466-19.631106 7.52744-33.586956 26.610054-33.586956 48.855708 0 22.579251 14.282285 41.767266 34.238802 49.077765z m-400.650982-20.719904h55.832609c15.373129 0 27.913746-12.542664 27.913747-27.920909 0-15.371082-12.540617-27.9117-27.913747-27.9117h-55.832609c-15.378246 0-27.92091 12.540617-27.92091 27.9117 0 15.378246 12.542664 27.92091 27.92091 27.920909z m-223.335555-27.920909c0 15.378246 12.535501 27.92091 27.913747 27.920909h55.834656c15.378246 0 27.918863-12.542664 27.918863-27.920909 0-15.371082-12.540617-27.9117-27.918863-27.9117h-55.834656c-15.378246 0-27.913746 12.540617-27.913747 27.9117z m283.71676-475.377918l-32.148187-28.269857-0.316202 0.277316-0.316201-0.277316-32.148188 28.269857c-114.171296 102.20066-189.528588 168.519088-189.528588 251.151063 0 67.408249 53.190433 119.591749 121.921817 119.591749 38.791491 0 75.354222-17.394159 99.751889-45.666062 0.103354 0.12075 0.212848 0.230244 0.316201 0.348947 0.106424-0.118704 0.215918-0.230244 0.319272-0.348947 24.394596 28.274974 60.95835 45.666062 99.751888 45.666062 68.734454 0 121.921817-52.182476 121.924887-119.591749 0.001023-82.630952-75.356268-148.950404-189.528588-251.151063zM735.083821 496.426559h-55.832609c-15.371082 0-27.913746 12.540617-27.913747 27.9117 0 15.378246 12.542664 27.92091 27.913747 27.920909h55.832609c15.380292 0 27.92091-12.542664 27.92091-27.920909 0-15.371082-12.540617-27.9117-27.92091-27.9117z"  horiz-adv-x="1024" />
      
      <glyph glyph-name="shanchu2" unicode="&#59238;" d="M921.6 710.4h-230.4c0 102.4-89.6 185.6-192 185.6s-185.6-83.2-192-185.6H64c-25.6 0-51.2-19.2-51.2-51.2 6.4-19.2 25.6-44.8 51.2-44.8h51.2v-544c0-102.4 70.4-185.6 153.6-185.6h441.6c83.2 0 153.6 83.2 153.6 185.6V614.4h51.2c25.6 0 51.2 19.2 51.2 51.2 0 25.6-19.2 44.8-44.8 44.8zM384 140.8c0-25.6-19.2-51.2-38.4-51.2-25.6 0-38.4 25.6-38.4 51.2V428.8c0 25.6 19.2 51.2 38.4 51.2s38.4-25.6 38.4-51.2v-288z m147.2 0c0-25.6-19.2-51.2-38.4-51.2s-44.8 25.6-44.8 51.2V428.8c0 25.6 19.2 51.2 38.4 51.2 25.6 0 38.4-19.2 38.4-51.2v-288zM396.8 710.4c6.4 57.6 51.2 96 102.4 96s96-38.4 102.4-96H396.8z m288-569.6c0-25.6-19.2-51.2-38.4-51.2-25.6 0-38.4 25.6-38.4 51.2V428.8c0 25.6 19.2 51.2 38.4 51.2 25.6 0 38.4-19.2 38.4-51.2v-288z"  horiz-adv-x="1024" />
      
      <glyph glyph-name="zu1" unicode="&#58964;" d="M512.036571-54.85714299999995c-70.546286 0-365.714286 276.589714-365.714285 548.571429a365.714286 365.714286 0 0 0 731.428571 0c0-271.981714-295.168-548.571429-365.714286-548.571429zM512.036571-128c-77.604571 0-402.285714 309.796571-402.285714 614.4a402.285714 402.285714 0 1 0 804.571429 0c0-304.603429-324.681143-614.4-402.285715-614.4z m0 950.857143a329.142857 329.142857 0 0 1-329.142857-329.142857c0-229.778286 243.382857-512 329.142857-512 81.225143 0 329.142857 279.954286 329.142858 512a329.142857 329.142857 0 0 1-329.142858 329.142857z m0-438.857143a109.714286 109.714286 0 1 0 109.714286 109.714286 109.714286 109.714286 0 0 0-109.714286-109.714286z"  horiz-adv-x="1024" />
      
      <glyph glyph-name="xiangqing" unicode="&#58965;" d="M512 810.666667c235.648 0 426.666667-191.018667 426.666667-426.666667s-191.018667-426.666667-426.666667-426.666667S85.333333 148.352 85.333333 384 276.352 810.666667 512 810.666667z m-1.024-174.421334l-40.96-26.624a285.866667 285.866667 0 0 0 20.48-30.976c6.144-10.752 12.117333-21.930667 17.92-33.536h-71.68v-49.152H550.4v-61.952h-107.008v-49.152H550.4v-60.928H421.888v-38.912l-29.184-24.064V466.773333h-102.4v-52.224h53.248v-168.448c0-6.826667-0.512-13.056-1.536-18.688-1.024-5.632-4.608-11.008-10.752-16.128l32.768-38.4c6.485333 6.826667 13.738667 13.738667 21.76 20.736 8.021333 6.997333 15.786667 13.482667 23.296 19.456 7.509333 5.973333 14.165333 11.178667 19.968 15.616a430.933333 430.933333 0 0 1 11.776 9.216l-13.312 35.84h122.88v-110.592h52.224v110.592h137.216v50.176h-137.216V384.853333h105.472v49.152h-105.472V495.957333h117.248V545.109333H647.68c6.826667 11.264 13.653333 22.784 20.48 34.56 6.826667 11.776 12.117333 21.76 15.872 29.952l-45.568 24.064c-2.048-5.461333-4.949333-11.946667-8.704-19.456-3.754667-7.509333-7.850667-15.274667-12.288-23.296a867.413333 867.413333 0 0 0-13.824-24.064 413.013333 413.013333 0 0 0-13.824-21.76h-66.56l30.72 21.504c-6.826667 13.312-13.482667 25.344-19.968 36.096a371.072 371.072 0 0 1-23.04 33.536z m-163.328-11.264l-36.352-34.816c4.778667-5.12 10.325333-11.52 16.64-19.2 6.314667-7.68 12.629333-15.616 18.944-23.808a940.032 940.032 0 0 0 33.024-46.08l36.864 41.984a1156.906667 1156.906667 0 0 1-15.872 20.992 874.837333 874.837333 0 0 1-36.608 43.776c-5.973333 6.656-11.52 12.373333-16.64 17.152z"  horiz-adv-x="1024" />
      
      <glyph glyph-name="zantingxiangmu" unicode="&#58966;" d="M512 832C264.512 832 64 631.488 64 384s200.512-448 448-448 448 200.512 448 448-200.512 448-448 448z m-44.8-627.2H377.6V563.2h89.6v-358.4z m179.2 0H556.8V563.2h89.6v-358.4z"  horiz-adv-x="1024" />
      
      <glyph glyph-name="lahei" unicode="&#59150;" d="M536.87229 30.079802a178.687777 178.687777 0 0 0-23.48797 39.615951 220.415724 220.415724 0 0 0-11.903986 37.119953 293.439633 293.439633 0 0 0-7.93599 49.087939 200.575749 200.575749 0 0 0 2.495997 51.199936 251.263686 251.263686 0 0 0 15.99998 53.503933 255.99968 255.99968 0 0 0 34.303957 57.599928 62.079922 62.079922 0 0 1 9.983988 17.855978c1.919998 5.759993 3.775995 11.583986 5.567993 17.343978a144.575819 144.575819 0 0 0 6.015992 16.38398 37.503953 37.503953 0 0 0 12.799984 14.847981 59.775925 59.775925 0 0 1 12.799984 17.343979 200.38375 200.38375 0 0 1 9.983988 22.335972c2.879996 9.535988 5.567993 19.199976 8.06399 28.735964a47.039941 47.039941 0 0 1 16.575979 9.727988 58.879926 58.879926 0 0 1 12.799984 17.215978 81.471898 81.471898 0 0 1 7.93599 29.823963 78.911901 78.911901 0 0 1 0 24.831969 41.087949 41.087949 0 0 1-5.695993 15.74398 44.351945 44.351945 0 0 1-9.983987 11.967985A428.287465 428.287465 0 0 1 629.160175 633.599048a501.695373 501.695373 0 0 1-15.423981 65.471918 188.799764 188.799764 0 0 1-33.407958 63.551921 144.703819 144.703819 0 0 1-25.983968 25.599968 205.567743 205.567743 0 0 1-36.479954 22.015972 225.791718 225.791718 0 0 1-44.287945 15.80798A204.799744 204.799744 0 0 1 423.720432 831.9988a278.335652 278.335652 0 0 1-41.791948-3.455996 195.839755 195.839755 0 0 1-43.967945-12.799984 179.199776 179.199776 0 0 1-42.623947-24.511969 203.007746 203.007746 0 0 1-38.399952-40.639949 171.071786 171.071786 0 0 1-27.391966-58.559927 551.359311 551.359311 0 0 1-12.799984-61.567923A587.263266 587.263266 0 0 1 213.352695 563.199136a61.183924 61.183924 0 0 1-11.007987-19.199976 81.023899 81.023899 0 0 1-5.567993-21.759973 62.143922 62.143922 0 0 1 3.519996-27.775965 75.455906 75.455906 0 0 1 11.007986-23.80797 59.071926 59.071926 0 0 1 11.007986-11.967985 45.503943 45.503943 0 0 1 12.799984-5.951993 162.879796 162.879796 0 0 1 7.935991-28.735964 216.767729 216.767729 0 0 1 9.983987-22.847971 49.407938 49.407938 0 0 1 13.887983-17.855978c9.087989-7.80799 17.855978-15.67998 26.367967-23.80797a50.175937 50.175937 0 0 0 14.399982-32.703959c0.639999-9.343988 1.023999-17.855978 1.023998-25.599968a66.495917 66.495917 0 0 0-3.967995-22.847972 62.591922 62.591922 0 0 0-13.887982-21.375973 152.31981 152.31981 0 0 0-28.863964-22.335972 202.751747 202.751747 0 0 0-55.295931-23.359971c-20.351975-5.375993-40.447949-11.583986-60.287925-18.367977a162.367797 162.367797 0 0 1-50.303937-27.327966 76.799904 76.799904 0 0 1-26.367967-50.111937 364.799544 364.799544 0 0 1-3.071996-94.719882 81.535898 81.535898 0 0 1 13.887983-44.095945 80.1919 80.1919 0 0 1 25.599968-8.895989c13.567983-3.263996 30.271962-6.399992 49.791937-9.471988 21.439973-3.263996 43.135946-6.015992 64.767919-8.447989a2741.116574 2741.116574 0 0 1 142.463822-11.967985c22.975971-1.279998 43.007946-1.919998 60.287925-1.919998a1440.638199 1440.638199 0 0 1 156.479804 8.06399c21.247973 2.623997 39.87195 5.631993 55.871931 8.895989a322.239597 322.239597 0 0 0-59.775926 37.247953 255.61568 255.61568 0 0 0-39.231951 39.93595z m0 0M944.103781 251.135526a208.38374 208.38374 0 0 1-43.455945 66.495917 201.151749 201.151749 0 0 1-64.831919 44.479944 199.93575 199.93575 0 0 1-158.527802 0 211.839735 211.839735 0 0 1-65.407919-44.479944 207.67974 207.67974 0 0 1-43.967945-66.495917 213.311733 213.311733 0 0 1 43.967945-229.887713 203.647745 203.647745 0 0 1 65.407919-44.799944 199.87175 199.87175 0 0 1 158.527802 0 201.151749 201.151749 0 0 1 64.831919 44.799944 217.599728 217.599728 0 0 1 43.455945 67.071917 214.847731 214.847731 0 0 1 0 162.815796z m-58.879926-124.927844H633.19217v70.847912h252.031685z m0 0"  horiz-adv-x="1025" />
      
      <glyph glyph-name="yaohao" unicode="&#58967;" d="M287.607467 348.9792v-112.469333c0-21.4016 18.705067-40.072533 40.072533-40.072534h368.64v70.929067c21.367467 0 40.072533-49.5616 40.072533 40.072533v38.6048c27.648-2.525867 55.261867-5.495467 82.807467-8.9088v-341.060266c0-40.072533-32.085333-74.786133-69.461333-74.786134H274.261333C236.885333-76.049067 204.8-44.032 204.8-1.2288V341.265067c27.613867 3.003733 55.227733 5.563733 82.807467 7.68zM512 110.933333c-37.376 0-66.7648-29.354667-66.7648-66.7648s29.354667-66.798933 66.7648-66.798933 66.798933 29.3888 66.798933 66.798933C578.798933 81.544533 549.410133 110.933333 512 110.933333zM87.108267 540.8768c9.147733 14.848 29.866667 18.432 42.154666 7.168 12.014933-10.922667 14.882133-35.157333 5.9392-49.664l-42.257066-69.188267L102.4 431.104c273.544533 54.613333 547.498667 54.852267 818.517333 0.273067l9.3184-1.9456-41.437866 68.5056c-8.2944 13.550933-6.417067 35.566933 3.4816 47.5136l2.423466 2.56c12.322133 11.3664 33.041067 7.714133 42.1888-7.2704l81.885867-135.168c8.9088-14.609067 6.075733-39.0144-5.870933-50.005334l-109.943467-103.5264-4.164267-1.706666a18.500267 18.500267 0 0 1-5.3248-1.160534l-2.696533-0.8192a20.821333 20.821333 0 0 0-6.007467-0.887466 26.3168 26.3168 0 0 0-24.064 14.677333c-8.874667 14.609067-6.075733 39.0144 5.9392 50.0736l48.298667 44.2368-10.410667 2.1504c-258.321067 52.565333-522.103467 53.009067-785.3056 2.218667l-10.6496-2.082134 48.776534-44.168533c11.1616-10.205867 14.404267-31.812267 7.816533-46.216533l-1.706667-3.1744c-5.905067-10.752-14.882133-17.7152-24.234666-17.7152-4.027733 0-7.168 0.955733-12.288 3.822933l-5.870934 3.549867-92.125866 85.9136H28.4672c-13.073067 1.570133-23.210667 11.1616-26.999467 25.463466l-0.853333 3.9936a32.0512 32.0512 0 0 0-0.273067 10.752c-1.1264 9.454933 0.546133 18.978133 4.881067 26.043734zM749.738667 861.866667C787.1488 861.866667 819.2 829.781333 819.2 787.080533v-308.224a2799.104 2799.104 0 0 1-82.8416 8.2944l0.034133 249.173334c0 21.367467-18.705067 40.072533-40.072533 40.072533H327.68c-21.367467 0-40.072533-18.705067-40.072533-40.072533v-247.364267a2847.061333 2847.061333 0 0 1-82.807467-7.509333V787.0464C204.8 829.781333 236.885333 861.866667 274.261333 861.866667h475.477334z m-170.939734-160.290134c16.042667 0 26.692267-10.683733 26.692267-26.692266 0-16.042667-10.683733-26.7264-26.692267-26.7264h-133.563733c-16.042667 0-26.7264 10.683733-26.7264 26.7264 0 16.042667 10.683733 26.692267 26.7264 26.692266h133.563733z"  horiz-adv-x="1024" />
      
      <glyph glyph-name="xiangqing1" unicode="&#58968;" d="M1126.4 844.8H409.6c-56.32 0-102.4-46.08-102.4-102.4v-716.8c0-56.32 46.08-102.4 102.4-102.4h716.8c56.32 0 102.4 46.08 102.4 102.4V742.4c0 56.32-46.08 102.4-102.4 102.4zM501.76 660.48h20.48c22.528 0 40.96-18.432 40.96-40.96s-18.432-40.96-40.96-40.96h-20.48c-22.528 0-40.96 18.432-40.96 40.96s18.432 40.96 40.96 40.96z m532.48-552.96H501.76c-22.528 0-40.96 18.432-40.96 40.96s18.432 40.96 40.96 40.96h532.48c22.528 0 40.96-18.432 40.96-40.96s-18.432-40.96-40.96-40.96z m0 235.52H501.76c-22.528 0-40.96 18.432-40.96 40.96s18.432 40.96 40.96 40.96h532.48c22.528 0 40.96-18.432 40.96-40.96s-18.432-40.96-40.96-40.96z m0 235.52h-378.88c-22.528 0-40.96 18.432-40.96 40.96s18.432 40.96 40.96 40.96h378.88c22.528 0 40.96-18.432 40.96-40.96s-18.432-40.96-40.96-40.96z"  horiz-adv-x="1536" />
      
      <glyph glyph-name="jilu" unicode="&#59044;" d="M797.354667-79.530667L493.568 34.133333 171.52-79.530667A113.749333 113.749333 0 0 0 57.685333 34.133333V773.973333C57.685333 836.778667 108.544 887.637333 171.434667 887.637333h625.834666c62.805333 0 113.749333-50.858667 113.749334-113.749333v-739.584a113.664 113.664 0 0 0-113.664-113.834667zM569.685333 717.056h-341.333333v-56.917333h341.504v56.917333h-0.170667z m170.666667-199.253333h-512v-56.832h512.085333v56.832h-0.085333z m0-227.498667h-512v-56.917333h512.085333v56.917333h-0.085333z"  horiz-adv-x="1024" />
      
      <glyph glyph-name="rili" unicode="&#58972;" d="M476.928 279.552h70.144a35.1232 35.1232 0 1 1 0 70.1952h-70.144a35.1232 35.1232 0 1 1 0-70.1952z m0-140.3904h70.144a35.1232 35.1232 0 1 1 0 70.1952h-70.144a35.1232 35.1232 0 1 1 0-70.1952z m386.048 631.7568h-140.3904v35.1232a35.1232 35.1232 0 0 1-70.1952 0v-35.1232H371.6096v35.1232a35.1232 35.1232 0 0 1-70.1952 0v-35.1232H161.024A140.8 140.8 0 0 1 20.48 630.528v-561.5616A140.8 140.8 0 0 1 161.024-71.68h701.952A140.8 140.8 0 0 1 1003.52 68.9664V630.528a140.8 140.8 0 0 1-140.3904 140.3904z m70.1952-701.952a70.3488 70.3488 0 0 0-70.1952-70.1952H161.024a70.3488 70.3488 0 0 0-70.1952 70.1952V490.1376h842.3424z m0 491.52H90.8288V630.528a70.4 70.4 0 0 0 70.1952 70.1952h140.3904V665.6a35.1232 35.1232 0 1 1 70.1952 0v35.1232h280.7808V665.6a35.1232 35.1232 0 1 1 70.1952 0v35.1232h140.3904a70.4 70.4 0 0 0 70.1952-70.1952zM266.24 139.1616h70.2464a35.1232 35.1232 0 1 1 0 70.1952H266.24a35.1232 35.1232 0 0 1 0-70.1952z m421.2224 140.3904H757.76a35.1232 35.1232 0 0 1 0 70.1952h-70.2464a35.1232 35.1232 0 1 1 0-70.1952z m-421.2224 0h70.2464a35.1232 35.1232 0 1 1 0 70.1952H266.24a35.1232 35.1232 0 0 1 0-70.1952z m421.2224-140.3904H757.76a35.1232 35.1232 0 0 1 0 70.1952h-70.2464a35.1232 35.1232 0 1 1 0-70.1952z m0 0"  horiz-adv-x="1024" />
      
      <glyph glyph-name="guanlian" unicode="&#59125;" d="M767.293 334.191c-35.2-0.3-63.9 28-64.2 63.2-0.1 17.1 6.6 33.5 18.7 45.6l91.5 88.9c14 15.5 20.5 36.3 17.9 57-3.4 29.5-17 56.9-38.4 77.5-32.7 40.6-91 49.6-134.3 20.5l-179-179.1c-24.9-25.2-65.4-25.4-90.6-0.5s-25.4 65.4-0.5 90.6l179.8 179.1c92.7 80.9 233.4 71.7 314.9-20.5 42.7-41.4 69.6-96.4 76.2-155.5 6.1-58.6-14-116.9-55-159.2l-89.5-88.9c-12.6-12.6-29.8-19.3-47.5-18.7z m-451.8-397.4c-66.5 0.9-129.8 28.3-176 76.2-42.7 41.4-69.6 96.4-76.2 155.5-6.1 58.6 14 116.9 55 159.2l89.5 88.9c27 22.9 67.4 19.6 90.2-7.4 20.3-23.9 20.3-58.9 0-82.8l-88.9-88.9c-13.7-15.6-20-36.4-17.3-57 3.3-29.4 16.6-56.8 37.8-77.5 32.7-40.6 91-49.6 134.3-20.5l179.2 179c26.4 23.5 66.9 21.2 90.4-5.2 21.5-24.1 21.6-60.4 0.4-84.7l-179.8-179.1c-36.8-36.5-86.7-56.6-138.6-55.7zM375.593 185.091c-35.4-0.2-64.2 28.4-64.3 63.7-0.1 17.2 6.7 33.6 18.9 45.7l271.4 271.4c25.4 24.8 66.1 24.2 90.9-1.2 24.3-25 24.3-64.7 0-89.6l-271.4-271.5c-12.1-11.9-28.4-18.6-45.5-18.5z"  horiz-adv-x="1024" />
      
      <glyph glyph-name="position" unicode="&#58973;" d="M511.488001 895.93408a401.087248 401.087248 0 0 1-402.303246-402.239246C109.184755 274.239246 412.800186-128 511.488001-128c98.687815 0 402.239246 402.239246 402.239246 621.694834 0 223.039582-179.199664 402.239246-402.239246 402.239246z m0-932.478251c-65.855877 0-329.151383 361.983321-329.151383 530.239005a327.743385 327.743385 0 0 0 329.151383 329.087383 327.743385 327.743385 0 0 0 329.087383-329.087383c0-168.255685-263.295506-530.303006-329.087383-530.303005zM511.488001 639.99856a146.687725 146.687725 0 0 1-146.303726-146.303726 146.687725 146.687725 0 0 1 146.303726-146.303725 146.687725 146.687725 0 0 1 146.239726 146.303725 146.687725 146.687725 0 0 1-146.239726 146.239726z m0-219.519588a73.343862 73.343862 0 0 0-73.151863 73.215862c0 40.191925 32.895938 73.087863 73.151863 73.087863 40.191925 0 73.087863-32.895938 73.087863-73.087863 0-40.255925-32.895938-73.151863-73.087863-73.151863z"  horiz-adv-x="1024" />
      
      <glyph glyph-name="duigou1" unicode="&#58974;" d="M373.670175 142.671345L112.580117 403.761404a74.254971 74.254971 0 0 0 104.196491 104.196491L426.367251 297.169591l313.787135 314.984795a71.859649 71.859649 0 0 0 104.196491 0 74.254971 74.254971 0 0 0 0-104.196491L479.064327 142.671345a74.254971 74.254971 0 0 0-105.394152 0zM377.54705 252.072256m52.506193 52.506193l423.437043 423.437044q52.506193 52.506193 105.012387 0l0 0q52.506193-52.506193 0-105.012387l-423.437043-423.437043q-52.506193-52.506193-105.012387 0l0 0q-52.506193 52.506193 0 105.012386Z"  horiz-adv-x="1024" />
      
      <glyph glyph-name="shenpi" unicode="&#59090;" d="M588.929293 217.729293 588.929293 395.636364c75.894949 31.159596 129.422222 107.054545 129.422222 195.749495 0 116.622222-92.444444 211.135354-206.351515 211.135354-114.036364 0-206.351515-94.513131-206.351515-211.135354 0-88.694949 53.527273-164.589899 129.422222-195.749495l0-177.907071L116.363636 217.729293l0-127.094949 791.272727 0 0 127.094949L588.929293 217.729293 588.929293 217.729293zM117.268687-34.521212 907.636364-34.521212l0 43.054545L117.268687 8.533333 117.268687-34.521212 117.268687-34.521212z"  horiz-adv-x="1024" />
      
      <glyph glyph-name="yonghuxinxi" unicode="&#59189;" d="M921.6 691.2H512l-102.4 102.4H102.4c-56.32 0-102.4-46.08-102.4-102.4v-614.4c0-56.32 46.08-102.4 102.4-102.4h819.2c56.32 0 102.4 46.08 102.4 102.4V588.8c0 56.32-46.08 102.4-102.4 102.4z m-256-153.6c56.32 0 102.4-46.08 102.4-102.4s-46.08-102.4-102.4-102.4-102.4 46.08-102.4 102.4 46.08 102.4 102.4 102.4z m204.8-409.6H460.8v51.2c0 66.56 138.24 102.4 204.8 102.4 66.56 0 204.8-35.84 204.8-102.4v-51.2z"  horiz-adv-x="1024" />
      
      <glyph glyph-name="bingtu" unicode="&#58955;" d="M511.801997 896a511.801997 511.801997 0 0 0 511.801996-511.801997H511.801997V896zM447.826747 892.033535V320.222754h571.810781A511.865972 511.865972 0 0 0 0 384.198003 511.865972 511.865972 0 0 0 447.826747 892.033535z"  horiz-adv-x="1024" />
      
      <glyph glyph-name="sangedian" unicode="&#59438;" d="M210.3 466.5c-45.4 0-82.3-36.8-82.3-82.3s36.8-82.3 82.3-82.3c45.4 0 82.3 36.8 82.3 82.3s-36.9 82.3-82.3 82.3z m301.7 0c-45.4 0-82.3-36.8-82.3-82.3s36.8-82.3 82.3-82.3c45.4 0 82.3 36.8 82.3 82.3s-36.9 82.3-82.3 82.3z m301.7 0c-45.4 0-82.3-36.8-82.3-82.3s36.8-82.3 82.3-82.3 82.3 36.8 82.3 82.3-36.8 82.3-82.3 82.3z"  horiz-adv-x="1024" />
      
      <glyph glyph-name="xiangmu" unicode="&#59015;" d="M1116.216201-44.063332V672.175397c0 83.716215-74.414413 83.716215-74.414413 83.716215H595.315307c-18.603603 0-37.207207 9.301802-37.207206 9.301802L502.297291 848.909629c-27.905405 55.81081-65.112612 46.509008-65.112612 46.509008H93.018017C0 895.418637 0 802.400621 0 802.400621v-837.162152c0-102.319818 74.414413-93.018017 74.414413-93.018016h967.387375c83.716215 0 74.414413 83.716215 74.414413 83.716215zM232.545042 151.274503c-27.905405 0-46.509008 18.603603-46.509008 46.509008s18.603603 46.509008 46.509008 46.509009 46.509008-18.603603 46.509008-46.509009-18.603603-46.509008-46.509008-46.509008z m0 279.05405c-27.905405 0-46.509008 18.603603-46.509008 46.509009s18.603603 46.509008 46.509008 46.509008 46.509008-18.603603 46.509008-46.509008-18.603603-46.509008-46.509008-46.509009z m641.824316-279.05405H520.900894c-27.905405 0-55.81081 18.603603-55.81081 46.509008s27.905405 46.509008 55.81081 46.509009h353.468464c27.905405 0 55.81081-18.603603 55.81081-46.509009s-27.905405-46.509008-55.81081-46.509008z m0 279.05405H520.900894c-27.905405 0-55.81081 18.603603-55.81081 46.509009s27.905405 46.509008 55.81081 46.509008h353.468464c27.905405 0 55.81081-18.603603 55.81081-46.509008s-27.905405-46.509008-55.81081-46.509009z"  horiz-adv-x="1117" />
      
      <glyph glyph-name="jigouicon" unicode="&#59060;" d="M858.24 465.472v-448H960V-64H64v81.472h101.76v448H64V546.88h107.2a346.24 346.24 0 0 0 681.6 0H960v-81.408h-101.76z m-529.536-61.12v-325.76H410.24v325.76H328.704z m264.768 0v-325.76h81.408v325.76H593.472z"  horiz-adv-x="1024" />
      
      <glyph glyph-name="lingdang" unicode="&#58956;" d="M902.070857-25.6h-292.571428c0-56.539429-43.666286-102.4-97.499429-102.4s-97.499429 45.860571-97.499429 102.4H121.856c-26.916571 0-48.713143 22.966857-48.713143 51.2 0 28.306286 21.942857 51.2 48.786286 51.2h48.713143V435.2c0 162.084571 103.131429 297.472 243.858285 341.796571V793.6C414.500571 850.139429 458.166857 896 512 896s97.499429-45.860571 97.499429-102.4v-16.676571c140.653714-44.251429 243.858286-179.638857 243.858285-341.723429v-358.4h48.713143c26.989714 0 48.786286-22.893714 48.786286-51.2 0-28.306286-21.796571-51.2-48.786286-51.2zM365.714286 435.2c0 28.306286-21.942857 51.2-48.786286 51.2-26.989714 0-48.786286-22.966857-48.713143-51.2v-204.8c0-28.306286 21.796571-51.2 48.713143-51.2h0.073143c26.916571 0 48.713143 22.893714 48.713143 51.2V435.2z"  horiz-adv-x="1024" />
      
      <glyph glyph-name="start-copy" unicode="&#58957;" d="M1009.04710011 492.80310236C1004.24356543 507.45692342 990.57477324 517.3072098800001 975.19130087 517.3072098800001L665.77069794 517.3072098800001 570.14995451 809.54453555C565.50451044 824.14971357 551.88436133 833.99999999 536.40360282 833.99999999 521.0201305 833.99999999 507.3513383 824.14971357 502.65725117 809.65398309L406.92705927 517.3072098800001 97.56726084 517.3072098800001C82.13514541 517.3072098800001 68.50283487 507.45692342 63.76010469 492.80310236 58.95657002 478.29521135 64.22221689 462.25505361 76.66276397 453.32899159L326.99380889 272.78904961 231.42170848-19.606366699999967C226.56953075-34.16290167 231.83517763-50.05712931000005 244.32436777-59.08047742999997 256.6554673-68.05518340000003 273.6806539-68.05518340000003 286.07255703-59.08047742999997L536.40360282 121.56891122000002 786.78329084-59.08047742999997C792.92451904-63.53134836000004 800.25750986-65.84190935000004 807.63914463-65.84190935000004 814.95997492-65.84190935000004 822.34160966-63.53134836000004 828.53148095-59.08047742999997 840.97202716-50.05712931000005 846.2376749-34.16290167 841.38549627-19.606366699999967L745.9106829 272.78904961 996.09579775 453.32899159C1008.52418429 462.25505361 1013.7411881 478.29521135 1009.04710011 492.80310236Z"  horiz-adv-x="1080" />
      
      <glyph glyph-name="qingkong" unicode="&#58958;" d="M211.87 321.948h631.96c20.88 0 30.716 15.84 21.823 35.187l-74.57 162.259c-8.93 19.346-33.302 35.187-54.18 35.187H606.171v237.68c0 21.41-17.122 38.9-38.002 38.9h-76.043c-20.915 0-38.037-17.488-38.037-38.9v-237.68H318.795c-20.916 0-45.288-15.876-54.186-35.187l-74.56-162.259c-8.93-19.348 0.907-35.187 21.821-35.187m614.163-57.59h-582.37c3.154-59.997 1.81-132.195-46.832-175.043-68.119-59.961-45.153-125.592 3.158-151.573h98.866c9.737 13.611 63.351 91.334 79.094 169.889 2.453 16.287 3.931 27.08 3.931 27.08-0.67-8.971-2.117-18.008-3.931-27.08-7.518-49.964-24.336-152.913-36.59-169.889h71.54c9.738 13.611 63.352 91.334 79.094 169.889a2878.5 2878.5 0 0 1 3.963 27.08c-0.706-8.971-2.15-18.008-3.963-27.08-7.554-49.964-24.341-152.913-36.626-169.889h90.173c9.738 13.611 63.352 91.334 79.094 169.889 2.453 16.287 3.963 27.08 3.963 27.08-0.707-8.971-2.15-18.008-3.963-27.08-7.549-49.964-24.336-152.913-36.626-169.889h90.543c9.734 13.611 63.352 91.334 79.095 169.889 2.453 16.287 3.962 27.08 3.962 27.08-0.706-8.971-2.149-18.008-3.962-27.08-7.554-49.964-24.372-152.913-36.626-169.889h91.084s60.056 22.099 50.688 93.225c-13.39 101.437-18.73 157.825-36.759 233.391m0 0"  horiz-adv-x="1024" />
      
      </font>
</defs>
</svg>
